<?xml version="1.0" encoding="utf-8"?>
<!-- Generator: Adobe Illustrator 17.0.0, SVG Export Plug-In . SVG Version: 6.00 Build 0)  -->
<!DOCTYPE svg PUBLIC "-//W3C//DTD SVG 1.1//EN" "http://www.w3.org/Graphics/SVG/1.1/DTD/svg11.dtd">
<svg version="1.1" id="kupe_1_klass_45_mest" xmlns="http://www.w3.org/2000/svg" xmlns:xlink="http://www.w3.org/1999/xlink"
	 x="0px" y="0px" width="740px" height="208px" viewBox="0 0 740 208" enable-background="new 0 0 740 208" xml:space="preserve">
<g id="left-side-wagon-7">
	<g id="rect-360">
			<path fill="#898989" d="M60,10v5v2h2h170.985L233,193H62h-2v2v5H35v-5v-2h-2H12.981C8.58,193,5,189.411,5,185V25
				c0-4.411,3.58-8,7.981-8H33h2v-2v-5H60 M62,8H33v7c-12.424,0-20.019,0-20.019,0C7.469,15,3,19.477,3,25v160
				c0,5.523,4.469,10,9.981,10c0,0,7.571,0,20.019,0v7h29v-7h173l-0.016-180H62V8L62,8z"/>
	</g>
	<g id="rect-361"><path fill="#898989" d="M60,10v1H35v-1H60 M62,8H33v5h29V8L62,8z"/></g>
	<g id="rect-362"><path fill="#898989" d="M60,199v1H35v-1H60 M62,197H33v5h29V197L62,197z"/></g>
	<g id="rect-363"><rect x="42" y="3" fill-rule="evenodd" clip-rule="evenodd" fill="#FFFFFF" width="11" height="16"/></g>
	<g id="rect-364"><polygon fill="#898989" points="49,16 49,0 46,0 46,16 42,16 42,17 43,17 43,18 44,18 44,19 45,19 45,20 46,20 46,21 47,21 47,22 48,22 48,21 49,21 49,20 50,20 50,19 51,19 51,18 52,18 52,17 53,17 53,16 "/></g>
	<g id="rect-365"><rect x="42" y="189" fill-rule="evenodd" clip-rule="evenodd" fill="#FFFFFF" width="11" height="16"/></g>
	<g id="rect-366"><polygon fill="#898989" points="52,191 52,190 51,190 51,189 50,189 50,188 49,188 49,187 48,187 48,186 47,186 47,187 46,187 46,188 45,188 45,189 44,189 44,190 43,190 43,191 42,191 42,192 46,192 46,208 49,208 49,192 53,192 53,191"/></g>
	<g id="rect-367">
			<rect x="1" y="90" fill-rule="evenodd" clip-rule="evenodd" fill="#FFFFFF" width="6" height="34"/>
			<path fill="#898989" d="M6,91v32H2V91H6 M8,89H0v36h8V89L8,89z"/>
	</g>
	<g id="rect-368">
			<rect x="73" y="15" fill="#FFFFFF" width="2" height="179"/>
			<polygon fill="#898989" points="75,15 73,15 73,194 75,194 75,15 			"/>
	</g>
	<g id="rect-369">
			<rect x="71" y="94" fill-rule="evenodd" clip-rule="evenodd" fill="#FFFFFF" width="6" height="27"/>
			<path fill="#898989" d="M76,95v25h-4V95H76 M78,93h-8v29h8V93L78,93z"/>
	</g>
	<g id="rect-370">
			<rect x="231" y="128" fill-rule="evenodd" clip-rule="evenodd" fill="#FFFFFF" width="6" height="26"/>
			<path fill="#898989" d="M236,129v24h-4v-24H236 M238,127h-8v28h8V127L238,127z"/>
	</g>
	<g id="rect-371"><polygon fill="#898989" points="122.192,150.538 74.192,130.538 73.808,131.461 74.163,131.609 73.808,132.462 121.808,152.462 122.192,151.538 121.837,151.391 			"/></g>
	<g id="rect-372"><polygon fill="#898989" points="122.192,101.538 74.192,81.538 73.808,82.462 74.163,82.61 73.808,83.462 121.808,103.462 122.192,102.539 121.837,102.391"/></g>
	<g id="rect-373"><polygon fill="#898989" points="169.192,121.539 121.192,101.538 120.808,102.462 121.163,102.61 120.808,103.462 	168.808,123.461 169.192,122.539 168.837,122.391"/></g>
	<g id="rect-374"><rect x="120" y="151" fill="#898989" width="2" height="43"/></g>
	<g id="rect-375"><rect x="120" y="15" fill="#898989" width="2" height="88"/></g>
	<g id="rect-376"><rect x="168" y="121" fill="#898989" width="67" height="2"/></g>
	<g id="WC_1_7"><text transform="matrix(1 0 0 1 78.7697 76.1916)" fill="#898989" font-family="'Roboto-Regular'" font-size="24">WC</text></g>
	<g id="rect-377">
			<path fill="#898989" d="M168.5,54h2.5v1.686c-0.631,0.95-1,2.088-1,3.314v1c0,3.314,2.686,6,6,6h1c3.314,0,6-2.686,6-6v-1
				c0-1.226-0.369-2.364-1-3.314V54h2.5c0.276,0,0.5-0.224,0.5-0.5v-1c0-0.276-0.224-0.5-0.5-0.5h-16c-0.276,0-0.5,0.224-0.5,0.5v1
				C168,53.776,168.224,54,168.5,54z M178,67h-3c-5.523,0-10,4.477-10,10v4h23v-4C188,71.477,183.523,67,178,67z"/>
	</g>
	<line fill="none" stroke="#898989" stroke-width="2" stroke-miterlimit="100" x1="233.735" y1="16" x2="442.5" y2="16"/>
	<line fill="none" stroke="#898989" stroke-width="2" stroke-miterlimit="100" x1="233.735" y1="193.976" x2="443.86" y2="193.976"/>
</g>
<g id="right-side-wagon-7">
	<g id="rect-378">
			<path fill="#898989" d="M705.031,10v5v2h2h20.003c4.394,0,7.969,3.589,7.969,8v160c0,4.411-3.575,8-7.969,8h-20.003h-2v2v5
				h-24.969v-5v-2h-2H617V17h61.062h2v-2v-5H705.031 M707.031,8h-28.969v7H615v180h63.062v7h28.969v-7c11.966,0,20.003,0,20.003,0
				c5.506,0,9.969-4.477,9.969-10V25c0-5.523-4.464-10-9.969-10c0,0-7.61,0-20.003,0V8L707.031,8z"/>
	</g>
	<g id="rect-379"><polygon fill="#898989" points="666,123 616,123 616,125 666,125 666,123"/></g>

	<g id="rect-380"><path fill="#898989" d="M705.031,199v1h-24.969v-1H705.031 M707.031,197h-28.969v5h28.969V197L707.031,197z"/></g>
	<g id="rect-381"><path fill="#898989" d="M705.031,10v1h-24.969v-1H705.031 M707.031,8h-28.969v5h28.969V8L707.031,8z"/></g>
	<g id="rect-382">
			<rect x="733" y="86" fill-rule="evenodd" clip-rule="evenodd" fill="#FFFFFF" width="6.001" height="34"/>
			<path fill="#898989" d="M738,87v32h-4V87H738 M740,85h-8v36h8V85L740,85z"/>
	</g>
	<g id="rect-383">
			<polygon fill="#FFFFFF" points="665.087,16 665,194 667,194 667,16 			"/>
			<polygon fill="#898989" points="667,16 665.087,16 665,194 667,194 667,16 			"/>
	</g>
	<g id="rect-384">
			<rect x="663" y="133" fill-rule="evenodd" clip-rule="evenodd" fill="#FFFFFF" width="6" height="34"/>
			<path fill="#898989" d="M668,134v32h-4v-32H668 M670,132h-8v36h8V132L670,132z"/>
	</g>
	<g id="rect-385">
			<rect x="613" y="133" fill-rule="evenodd" clip-rule="evenodd" fill="#FFFFFF" width="6" height="34"/>
			<path fill="#898989" d="M618,134v32h-4v-32H618 M620,132h-8v36h8V132L620,132z"/>
	</g>
	<g id="WC-7"><text transform="matrix(1 0 0 1 622.7693 78.1916)" fill="#898989" font-family="'Roboto-Regular'" font-size="24">WC</text></g>
</g>
<g id="compartment-7">
	<g id="rect-386" opacity="0.502"><path fill="#898989" d="M318,16v106h-38V16H318 M319,15h-40v108h40V15L319,15z"/></g>
	<g id="rect-387"><rect x="318" y="15" fill="#898989" width="2" height="108"/></g>
	<g id="rect-388"><rect x="196" y="121" fill-rule="evenodd" clip-rule="evenodd" fill="#898989" width="124" height="2"/></g>
	<g id="rect-389">
			<rect x="241" y="119" fill-rule="evenodd" clip-rule="evenodd" fill="#FFFFFF" width="34" height="6"/>
			<path fill="#898989" d="M274,120v4h-32v-4H274 M276,118h-36v8h36V118L276,118z"/>
	</g>
	<g id="rect-wagon-180">
			<path fill-rule="evenodd" clip-rule="evenodd" fill="#2DBCF8" d="M306,54h-20c-2.761,0-5,2.239-5,5v20c0,2.761,2.239,5,5,5h20c2.761,0,5-2.239,5-5V59C311,56.239,308.761,54,306,54z"/>
			<text transform="matrix(1 0 0 1 291.7697 75.1916)" fill="#FFFFFF" font-family="'Roboto-Regular'" font-size="16">2</text>
	</g>
	<g id="rect-wagon-181">
			<path fill-rule="evenodd" clip-rule="evenodd" fill="#2DBCF8" d="M306,88h-20c-2.761,0-5,2.239-5,5v20c0,2.761,2.239,5,5,5h20c2.761,0,5-2.239,5-5V93C311,90.239,308.761,88,306,88z"/>
			<text transform="matrix(1 0 0 1 291.7697 109.1911)" fill="#FFFFFF" font-family="'Roboto-Regular'" font-size="16">3</text>
	</g>
	<g id="rect-wagon-182">
			<path fill-rule="evenodd" clip-rule="evenodd" fill="#2DBCF8" d="M306,19h-20c-2.761,0-5,2.239-5,5v20c0,2.761,2.239,5,5,5h20c2.761,0,5-2.239,5-5V24C311,21.239,308.761,19,306,19z"/>
		    <text transform="matrix(1 0 0 1 291.7697 40.1916)" fill="#FFFFFF" font-family="'Roboto-Regular'" font-size="16">1</text>
	</g>
	<g id="rect-wagon-183">
			<path fill-rule="evenodd" clip-rule="evenodd" fill="#2DBCF8" d="M351,88h-20c-2.761,0-5,2.239-5,5v20c0,2.761,2.239,5,5,5h20c2.761,0,5-2.239,5-5V93C356,90.239,353.761,88,351,88z"/>
			<text transform="matrix(1 0 0 1 336.7697 109.1911)" fill="#FFFFFF" font-family="'Roboto-Regular'" font-size="16">9</text>
    </g>
</g>
<g id="compartment-7-2">
	<g id="rect-390" opacity="0.502"><path fill="#898989" d="M357,16v106h-37.11V16H357 M358,15h-39.11v108H358V15L358,15z"/></g>
	<g id="rect-391" opacity="0.502"><path fill="#898989" d="M443,16v106h-39V16H443 M444,15h-41v108h41V15L444,15z"/></g>
	<g id="rect-392"><rect x="442" y="15" fill="#898989" width="2" height="108"/></g>
	<g id="rect-393"><rect x="320" y="121" fill-rule="evenodd" clip-rule="evenodd" fill="#898989" width="124" height="2"/></g>
	<g id="rect-394">
			<rect x="364" y="119" fill-rule="evenodd" clip-rule="evenodd" fill="#FFFFFF" width="34" height="6"/>
			<path fill="#898989" d="M397,120v4h-32v-4H397 M399,118h-36v8h36V118L399,118z"/>
	</g>
	<g id="rect-wagon-184">
			<path fill-rule="evenodd" clip-rule="evenodd" fill="#2DBCF8" d="M351,19h-20c-2.761,0-5,2.239-5,5v20c0,2.761,2.239,5,5,5h20c2.761,0,5-2.239,5-5V24C356,21.239,353.761,19,351,19z"/>
			<text transform="matrix(1 0 0 1 335.7697 40.1916)" fill="#FFFFFF" font-family="'Roboto-Regular'" font-size="16">7</text>
	</g>
	<g id="rect-wagon-185">
			<path fill-rule="evenodd" clip-rule="evenodd" fill="#2DBCF8" d="M430,19h-20c-2.761,0-5,2.239-5,5v20c0,2.761,2.239,5,5,5h20c2.761,0,5-2.239,5-5V24C435,21.239,432.762,19,430,19z"/>
			<text transform="matrix(1 0 0 1 410.7693 40.1916)" fill="#FFFFFF" font-family="'Roboto-Regular'" font-size="16">10</text>
	</g>
	<g id="rect-wagon-186">
			<path fill-rule="evenodd" clip-rule="evenodd" fill="#1A88B6" d="M351,54h-20c-2.761,0-5,2.239-5,5v20c0,2.761,2.239,5,5,5h20c2.761,0,5-2.239,5-5V59C356,56.239,353.761,54,351,54z"/>
			<text transform="matrix(1 0 0 1 336.7697 75.1916)" fill="#FFFFFF" font-family="'Roboto-Regular'" font-size="16">8</text>
	</g>
	<g id="rect-wagon-187">
			<path fill-rule="evenodd" clip-rule="evenodd" fill="#2DBCF8" d="M430,54h-20c-2.761,0-5,2.239-5,5v20c0,2.761,2.239,5,5,5h20c2.761,0,5-2.239,5-5V59C435,56.239,432.762,54,430,54z"/>
		    <text transform="matrix(1 0 0 1 410.7693 75.1916)" fill="#FFFFFF" font-family="'Roboto-Regular'" font-size="16">11</text>
	</g>
	<g id="rect-wagon-188">
			<path fill-rule="evenodd" clip-rule="evenodd" fill="#2DBCF8" d="M430,88h-20c-2.761,0-5,2.239-5,5v20c0,2.761,2.239,5,5,5h20c2.761,0,5-2.239,5-5V93C435,90.239,432.762,88,430,88z"/>
			<text transform="matrix(1 0 0 1 410.7693 109.1911)" fill="#FFFFFF" font-family="'Roboto-Regular'" font-size="16">12</text>
	</g>
</g>
<g id="rect-395">
		<path fill="#898989" d="M318,52.022v31.955c-2.799-0.254-5-2.613-5-5.477v-21C313,54.636,315.201,52.276,318,52.022 M318.5,51
			c-3.59,0-6.5,2.91-6.5,6.5v21c0,3.59,2.91,6.5,6.5,6.5c0.169,0,0.334-0.013,0.5-0.025v-33.95C318.835,51.013,318.669,51,318.5,51
			L318.5,51z"/>
</g>
<g id="rect-396">
		<path fill="#898989" d="M318,87.023v31.955c-2.799-0.254-5-2.613-5-5.477v-21C313,89.636,315.201,87.276,318,87.023 M318.5,86
			c-3.59,0-6.5,2.91-6.5,6.5v21c0,3.59,2.91,6.5,6.5,6.5c0.169,0,0.334-0.013,0.5-0.025V86.025C318.835,86.013,318.669,86,318.5,86
			L318.5,86z"/>
</g>
<g id="rect-397">
		<path fill="#898989" d="M318,17.022v31.955c-2.799-0.254-5-2.613-5-5.477v-21C313,19.636,315.201,17.276,318,17.022 M318.5,16
			c-3.59,0-6.5,2.91-6.5,6.5v21c0,3.59,2.91,6.5,6.5,6.5c0.169,0,0.334-0.013,0.5-0.025v-33.95C318.835,16.013,318.669,16,318.5,16
			L318.5,16z"/>
</g>
<g id="rect-398">
		<path fill="#898989" d="M442,53.022v31.955c-2.799-0.253-5-2.613-5-5.477v-21C437,55.636,439.201,53.276,442,53.022 M442.5,52
			c-3.59,0-6.5,2.91-6.5,6.5v21c0,3.59,2.91,6.5,6.5,6.5c0.169,0,0.335-0.013,0.5-0.025V52.025C442.835,52.013,442.669,52,442.5,52
			L442.5,52z"/>
</g>
<g id="rect-399">
		<path fill="#898989" d="M442,88.022v31.955c-2.799-0.253-5-2.613-5-5.477v-21C437,90.636,439.201,88.276,442,88.022 M442.5,87
			c-3.59,0-6.5,2.91-6.5,6.5v21c0,3.59,2.91,6.5,6.5,6.5c0.169,0,0.335-0.013,0.5-0.025V87.025C442.835,87.013,442.669,87,442.5,87
			L442.5,87z"/>
</g>
<g id="rect-400">
		<path fill="#898989" d="M442,18.023v31.955c-2.799-0.253-5-2.613-5-5.477v-21C437,20.636,439.201,18.276,442,18.023 M442.5,17
			c-3.59,0-6.5,2.91-6.5,6.5v21c0,3.59,2.91,6.5,6.5,6.5c0.169,0,0.335-0.012,0.5-0.025v-33.95C442.835,17.012,442.669,17,442.5,17
			L442.5,17z"/>
</g>
<g id="rect-401">
		<path fill="#898989" d="M319,52.022c2.799,0.253,5,2.613,5,5.477v21c0,2.864-2.201,5.224-5,5.477V52.022 M318.5,51
			c-0.169,0-0.334,0.013-0.5,0.025v33.95c0.166,0.012,0.331,0.025,0.5,0.025c3.59,0,6.5-2.91,6.5-6.5v-21
			C325,53.91,322.09,51,318.5,51L318.5,51z"/>
</g>
<g id="rect-402">
		<path fill="#898989" d="M319,87.023c2.799,0.253,5,2.613,5,5.478v21c0,2.864-2.201,5.224-5,5.477V87.023 M318.5,86
			c-0.169,0-0.334,0.013-0.5,0.025v33.949c0.166,0.013,0.331,0.025,0.5,0.025c3.59,0,6.5-2.91,6.5-6.5v-21
			C325,88.91,322.09,86,318.5,86L318.5,86z"/>
</g>
<g id="rect-403">
		<path fill="#898989" d="M319,17.022c2.799,0.253,5,2.613,5,5.478v21c0,2.864-2.201,5.224-5,5.477V17.022 M318.5,16
			c-0.169,0-0.334,0.013-0.5,0.025v33.95c0.166,0.012,0.331,0.025,0.5,0.025c3.59,0,6.5-2.91,6.5-6.5v-21
			C325,18.91,322.09,16,318.5,16L318.5,16z"/>
</g>
</svg>
