<?xml version="1.0" encoding="utf-8"?>
<!-- Generator: Adobe Illustrator 17.0.0, SVG Export Plug-In . SVG Version: 6.00 Build 0)  -->
<!DOCTYPE svg PUBLIC "-//W3C//DTD SVG 1.1//EN" "http://www.w3.org/Graphics/SVG/1.1/DTD/svg11.dtd">
<svg version="1.1" id="pass_vagon_2_klassa_otkr_tipa_invalid"
	 xmlns="http://www.w3.org/2000/svg" xmlns:xlink="http://www.w3.org/1999/xlink" x="0px" y="0px" width="1402px" height="208px"
	 viewBox="0 0 1402 208" enable-background="new 0 0 1402 208" xml:space="preserve">
<g id="left-side-wagon-4">
	<g id="rect-190">
		<path fill="#898989" d="M60.219,10v5v2h2h109.176l0.023,176H62.219h-2v2v5H34.375v-5v-2h-2H16.096C8.997,193,3,189.336,3,185V25
			c0-4.336,5.997-8,13.096-8h17.279h2v-2v-5H60.219 M62.219,8H33.375v7c-10.654,0-17.279,0-17.279,0C7.759,15,1,19.477,1,25v160
			c0,5.523,6.759,10,15.096,10c0,0,5.899,0,16.279,0v7h29.844v-7h111.199l-0.024-180H62.219V8L62.219,8z"/>
	</g>
	<g id="rect-191">
		<path fill="#898989" d="M60,10v1H35v-1H60 M62,8H33v5h29V8L62,8z"/>
	</g>
	<g id="rect-192">
		<path fill="#898989" d="M60,199v1H35v-1H60 M62,197H33v5h29V197L62,197z"/>
	</g>
	<g id="rect-193">
		<rect x="42" y="3" fill="#FFFFFF" width="11" height="16"/>
	</g>
	<g id="rect-194">
		<polygon fill="#898989" points="49,16 49,0 46,0 46,16 42,16 42,17 43,17 43,18 44,18 44,19 45,19 45,20 46,20 46,21 47,21 47,22 
			48,22 48,21 49,21 49,20 50,20 50,19 51,19 51,18 52,18 52,17 53,17 53,16 		"/>
	</g>
	<g id="rect-193_1_">
		<rect x="42" y="189" fill="#FFFFFF" width="11" height="16"/>
	</g>
	<g id="rect-194_1_">
		<polygon fill="#898989" points="52,191 52,190 51,190 51,189 50,189 50,188 49,188 49,187 48,187 48,186 47,186 47,187 46,187 
			46,188 45,188 45,189 44,189 44,190 43,190 43,191 42,191 42,192 46,192 46,208 49,208 49,192 53,192 53,191 		"/>
	</g>
	<g id="rect-195">
		<rect x="1" y="90" fill="#FFFFFF" width="6" height="34"/>
		<path fill="#898989" d="M6,91v32H2V91H6 M8,89H0v36h8V89L8,89z"/>
	</g>
	<g id="rect-196">
		<rect x="73" y="83" fill="#898989" width="37" height="2"/>
	</g>
	<g id="rect-197">
		<rect x="110" y="83" fill="#898989" width="62" height="2"/>
	</g>
	<g id="rect-198">
		<rect x="120" y="15" fill="#898989" width="2" height="70"/>
	</g>
	<g id="rect-199">
		<rect x="73" y="15" fill="#898989" width="2" height="70"/>
	</g>
	
		<line fill="none" stroke="#898989" stroke-width="2" stroke-miterlimit="100" x1="172.813" y1="16.008" x2="1276.298" y2="16.008"/>
	
		<line fill="none" stroke="#898989" stroke-width="2" stroke-miterlimit="100" x1="172.719" y1="193.976" x2="1276.204" y2="193.976"/>
</g>
<g id="row-8">
	<g id="rect-200" opacity="0.502">
		<path fill="#898989" d="M214,16v68h-37.985V16H214 M215,15h-39.985v70H215V15L215,15z"/>
	</g>
	<g id="rect-201">
		<path fill="#898989" d="M176,18.022c2.799,0.253,5,2.613,5,5.477v21c0,2.864-2.201,5.224-5,5.477V18.022 M175.5,17
			c-0.169,0-0.334,0.013-0.5,0.025v33.95c0.166,0.013,0.331,0.025,0.5,0.025c3.59,0,6.5-2.91,6.5-6.5v-21
			C182,19.91,179.09,17,175.5,17L175.5,17z"/>
	</g>
	<g id="rect-202">
		<path fill="#898989" d="M176,52.023c2.799,0.253,5,2.613,5,5.478v21c0,2.864-2.201,5.224-5,5.477V52.023 M175.5,51
			c-0.169,0-0.334,0.013-0.5,0.025v33.95c0.166,0.013,0.331,0.025,0.5,0.025c3.59,0,6.5-2.91,6.5-6.5v-21
			C182,53.91,179.09,51,175.5,51L175.5,51z"/>
	</g>
	<g id="rect-wagon-100">
		<path fill="#2DBCF8" d="M208,53h-20c-2.761,0-5,2.239-5,5v20c0,2.761,2.239,5,5,5h20c2.761,0,5-2.239,5-5V58
			C213,55.239,210.761,53,208,53z"/>
		<text transform="matrix(1 0 0 1 193.7693 74.1916)" fill="#FFFFFF" font-family="'Roboto-Regular'" font-size="16">1</text>
	</g>
	<g id="rect-wagon-101">
		<path fill="#2DBCF8" d="M208,19h-20c-2.761,0-5,2.239-5,5v20c0,2.761,2.239,5,5,5h20c2.761,0,5-2.239,5-5V24
			C213,21.239,210.761,19,208,19z"/>
		<text transform="matrix(1 0 0 1 193.7693 40.1916)" fill="#FFFFFF" font-family="'Roboto-Regular'" font-size="16">2</text>
	</g>
</g>
<g id="rect-203" opacity="0.502">
	<path fill="#898989" d="M273,16v68h-38.11V16H273 M274,15h-40.11v70H274V15L274,15z"/>
</g>
<g id="rect-204">
	<path fill="#898989" d="M235,18.022c2.799,0.253,5,2.613,5,5.477v21c0,2.864-2.201,5.224-5,5.477V18.022 M234.5,17
		c-0.169,0-0.334,0.013-0.5,0.025v33.95c0.166,0.013,0.331,0.025,0.5,0.025c3.59,0,6.5-2.91,6.5-6.5v-21
		C241,19.91,238.09,17,234.5,17L234.5,17z"/>
</g>
<g id="rect-205">
	<path fill="#898989" d="M235,52.023c2.799,0.253,5,2.613,5,5.478v21c0,2.864-2.201,5.224-5,5.477V52.023 M234.5,51
		c-0.169,0-0.334,0.013-0.5,0.025v33.95c0.166,0.013,0.331,0.025,0.5,0.025c3.59,0,6.5-2.91,6.5-6.5v-21
		C241,53.91,238.09,51,234.5,51L234.5,51z"/>
</g>
<g id="rect-wagon-102">
	<path fill="#2DBCF8" d="M267,53h-20c-2.761,0-5,2.239-5,5v20c0,2.761,2.239,5,5,5h20c2.761,0,5-2.239,5-5V58
		C272,55.239,269.761,53,267,53z"/>
	<text transform="matrix(1 0 0 1 252.7698 74.1916)" fill="#FFFFFF" font-family="'Roboto-Regular'" font-size="16">1</text>
</g>
<g id="rect-wagon-103">
	<path fill="#2DBCF8" d="M267,19h-20c-2.761,0-5,2.239-5,5v20c0,2.761,2.239,5,5,5h20c2.761,0,5-2.239,5-5V24
		C272,21.239,269.761,19,267,19z"/>
	<text transform="matrix(1 0 0 1 252.7698 40.1916)" fill="#FFFFFF" font-family="'Roboto-Regular'" font-size="16">2</text>
</g>
<g id="rect-206" opacity="0.502">
	<path fill="#898989" d="M273,126v68h-37.985v-68H273 M274,125h-39.985v70H274V125L274,125z"/>
</g>
<g id="rect-wagon-104">
	<path fill="#898989" d="M235,126.022c2.799,0.253,5,2.613,5,5.478v21c0,2.864-2.201,5.224-5,5.478V126.022 M234.5,125
		c-0.169,0-0.334,0.013-0.5,0.025v33.95c0.166,0.012,0.331,0.025,0.5,0.025c3.59,0,6.5-2.91,6.5-6.5v-21
		C241,127.91,238.09,125,234.5,125L234.5,125z"/>
</g>
<g id="rect-207">
	<path fill="#898989" d="M235,160.023c2.799,0.253,5,2.613,5,5.477v21c0,2.864-2.201,5.224-5,5.477V160.023 M234.5,159
		c-0.169,0-0.334,0.012-0.5,0.025v33.949c0.166,0.013,0.331,0.025,0.5,0.025c3.59,0,6.5-2.91,6.5-6.5v-21
		C241,161.91,238.09,159,234.5,159L234.5,159z"/>
</g>
<g id="rect-wagon-105">
	<path fill="#2DBCF8" d="M267,161h-20c-2.761,0-5,2.239-5,5v20c0,2.761,2.239,5,5,5h20c2.761,0,5-2.239,5-5v-20
		C272,163.239,269.761,161,267,161z"/>
	<text transform="matrix(1 0 0 1 252.7698 182.1911)" fill="#FFFFFF" font-family="'Roboto-Regular'" font-size="16">1</text>
</g>
<g id="rect-wagon-106">
	<path fill="#2DBCF8" d="M267,127h-20c-2.761,0-5,2.239-5,5v20c0,2.761,2.239,5,5,5h20c2.761,0,5-2.239,5-5v-20
		C272,129.239,269.761,127,267,127z"/>
	<text transform="matrix(1 0 0 1 252.7698 148.1911)" fill="#FFFFFF" font-family="'Roboto-Regular'" font-size="16">2</text>
</g>
<g id="row-9">
	<g id="rect-208" opacity="0.502">
		<path fill="#898989" d="M332,16v68h-37.86V16H332 M333,15h-39.86v70H333V15L333,15z"/>
	</g>
	<g id="rect-209">
		<path fill="#898989" d="M294,18.022c2.799,0.254,5,2.613,5,5.477v21c0,2.864-2.201,5.224-5,5.477V18.022 M293.5,17
			c-0.169,0-0.334,0.013-0.5,0.025v33.95c0.166,0.013,0.331,0.025,0.5,0.025c3.59,0,6.5-2.91,6.5-6.5v-21
			C300,19.91,297.09,17,293.5,17L293.5,17z"/>
	</g>
	<g id="rect-210">
		<path fill="#898989" d="M294,52.023c2.799,0.254,5,2.613,5,5.478v21c0,2.864-2.201,5.224-5,5.477V52.023 M293.5,51
			c-0.169,0-0.334,0.013-0.5,0.025v33.95c0.166,0.013,0.331,0.025,0.5,0.025c3.59,0,6.5-2.91,6.5-6.5v-21
			C300,53.91,297.09,51,293.5,51L293.5,51z"/>
	</g>
	<g id="rect-wagon-107">
		<path fill="#2DBCF8" d="M326,53h-20c-2.761,0-5,2.239-5,5v20c0,2.761,2.239,5,5,5h20c2.761,0,5-2.239,5-5V58
			C331,55.239,328.761,53,326,53z"/>
		<text transform="matrix(1 0 0 1 311.7698 74.1916)" fill="#FFFFFF" font-family="'Roboto-Regular'" font-size="16">1</text>
	</g>
	<g id="rect-wagon-108">
		<path fill="#2DBCF8" d="M326,19h-20c-2.761,0-5,2.239-5,5v20c0,2.761,2.239,5,5,5h20c2.761,0,5-2.239,5-5V24
			C331,21.239,328.761,19,326,19z"/>
		<text transform="matrix(1 0 0 1 311.7698 40.1916)" fill="#FFFFFF" font-family="'Roboto-Regular'" font-size="16">2</text>
	</g>
	<g id="rect-211" opacity="0.502">
		<path fill="#898989" d="M332,126v68h-38.11v-68H332 M333,125h-40.11v70H333V125L333,125z"/>
	</g>
	<g id="rect-212">
		<path fill="#898989" d="M294,126.022c2.799,0.254,5,2.613,5,5.478v21c0,2.864-2.201,5.224-5,5.478V126.022 M293.5,125
			c-0.169,0-0.334,0.013-0.5,0.025v33.95c0.166,0.012,0.331,0.025,0.5,0.025c3.59,0,6.5-2.91,6.5-6.5v-21
			C300,127.91,297.09,125,293.5,125L293.5,125z"/>
	</g>
	<g id="rect-213">
		<path fill="#898989" d="M294,160.023c2.799,0.254,5,2.613,5,5.477v21c0,2.864-2.201,5.224-5,5.477V160.023 M293.5,159
			c-0.169,0-0.334,0.012-0.5,0.025v33.949c0.166,0.013,0.331,0.025,0.5,0.025c3.59,0,6.5-2.91,6.5-6.5v-21
			C300,161.91,297.09,159,293.5,159L293.5,159z"/>
	</g>
	<g id="rect-wagon-109">
		<path fill="#2DBCF8" d="M326,161h-20c-2.761,0-5,2.239-5,5v20c0,2.761,2.239,5,5,5h20c2.761,0,5-2.239,5-5v-20
			C331,163.239,328.761,161,326,161z"/>
		<text transform="matrix(1 0 0 1 311.7698 182.1911)" fill="#FFFFFF" font-family="'Roboto-Regular'" font-size="16">1</text>
	</g>
	<g id="rect-wagon-110">
		<path fill="#2DBCF8" d="M326,127h-20c-2.761,0-5,2.239-5,5v20c0,2.761,2.239,5,5,5h20c2.761,0,5-2.239,5-5v-20
			C331,129.239,328.761,127,326,127z"/>
		<text transform="matrix(1 0 0 1 311.7698 148.1911)" fill="#FFFFFF" font-family="'Roboto-Regular'" font-size="16">2</text>
	</g>
</g>
<g id="row-10">
	<g id="rect-214" opacity="0.502">
		<path fill="#898989" d="M391,16v68h-37.86V16H391 M392,15h-39.86v70H392V15L392,15z"/>
	</g>
	<g id="rect-215">
		<path fill="#898989" d="M353,18.022c2.799,0.253,5,2.613,5,5.477v21c0,2.864-2.201,5.224-5,5.477V18.022 M352.5,17
			c-0.169,0-0.335,0.013-0.5,0.025v33.95c0.166,0.013,0.331,0.025,0.5,0.025c3.59,0,6.5-2.91,6.5-6.5v-21
			C359,19.91,356.09,17,352.5,17L352.5,17z"/>
	</g>
	<g id="rect-216">
		<path fill="#898989" d="M353,52.023c2.799,0.253,5,2.613,5,5.478v21c0,2.864-2.201,5.224-5,5.477V52.023 M352.5,51
			c-0.169,0-0.335,0.013-0.5,0.025v33.95c0.166,0.013,0.331,0.025,0.5,0.025c3.59,0,6.5-2.91,6.5-6.5v-21
			C359,53.91,356.09,51,352.5,51L352.5,51z"/>
	</g>
	<g id="rect-217">
		<path fill="#898989" d="M437,16v51h-24V16H437 M438,15h-26v53h26V15L438,15z"/>
	</g>
	<g id="rect-218">
		<path fill="#898989" d="M437,143v51h-24v-51H437 M438,142h-26v53h26V142L438,142z"/>
	</g>
	<g id="rect-wagon-111">
		<path fill="#2DBCF8" d="M385,53h-20c-2.761,0-5,2.239-5,5v20c0,2.761,2.239,5,5,5h20c2.761,0,5-2.239,5-5V58
			C390,55.239,387.761,53,385,53z"/>
		<text transform="matrix(1 0 0 1 370.7698 74.1916)" fill="#FFFFFF" font-family="'Roboto-Regular'" font-size="16">1</text>
	</g>
	<g id="rect-wagon-112">
		<path fill="#2DBCF8" d="M385,19h-20c-2.761,0-5,2.239-5,5v20c0,2.761,2.239,5,5,5h20c2.761,0,5-2.239,5-5V24
			C390,21.239,387.761,19,385,19z"/>
		<text transform="matrix(1 0 0 1 370.7698 40.1916)" fill="#FFFFFF" font-family="'Roboto-Regular'" font-size="16">2</text>
	</g>
	<g id="rect-219" opacity="0.502">
		<path fill="#898989" d="M391,126v68h-37.985v-68H391 M392,125h-39.985v70H392V125L392,125z"/>
	</g>
	<g id="rect-220">
		<path fill="#898989" d="M353,126.022c2.799,0.253,5,2.613,5,5.478v21c0,2.864-2.201,5.224-5,5.478V126.022 M352.5,125
			c-0.169,0-0.335,0.013-0.5,0.025v33.95c0.166,0.012,0.331,0.025,0.5,0.025c3.59,0,6.5-2.91,6.5-6.5v-21
			C359,127.91,356.09,125,352.5,125L352.5,125z"/>
	</g>
	<g id="rect-221">
		<path fill="#898989" d="M353,160.023c2.799,0.253,5,2.613,5,5.477v21c0,2.864-2.201,5.224-5,5.477V160.023 M352.5,159
			c-0.169,0-0.335,0.012-0.5,0.025v33.949c0.166,0.013,0.331,0.025,0.5,0.025c3.59,0,6.5-2.91,6.5-6.5v-21
			C359,161.91,356.09,159,352.5,159L352.5,159z"/>
	</g>
	<g id="rect-wagon-113">
		<path fill="#2DBCF8" d="M385,161h-20c-2.761,0-5,2.239-5,5v20c0,2.761,2.239,5,5,5h20c2.761,0,5-2.239,5-5v-20
			C390,163.239,387.761,161,385,161z"/>
		<text transform="matrix(1 0 0 1 370.7698 182.1911)" fill="#FFFFFF" font-family="'Roboto-Regular'" font-size="16">1</text>
	</g>
	<g id="rect-wagon-114">
		<path fill="#2DBCF8" d="M385,127h-20c-2.761,0-5,2.239-5,5v20c0,2.761,2.239,5,5,5h20c2.761,0,5-2.239,5-5v-20
			C390,129.239,387.761,127,385,127z"/>
		<text transform="matrix(1 0 0 1 370.7698 148.1911)" fill="#FFFFFF" font-family="'Roboto-Regular'" font-size="16">2</text>
	</g>
</g>
<g id="row-11">
	<g id="rect-222" opacity="0.502">
		<path fill="#898989" d="M495.14,126v68H457v-68H495.14 M496.14,125H456v70h40.14V125L496.14,125z"/>
	</g>
	<g id="rect-223">
		<path fill="#898989" d="M495,160.023v31.955c-2.799-0.254-5-2.613-5-5.477v-21C490,162.636,492.201,160.276,495,160.023
			 M495.5,159c-3.59,0-6.5,2.91-6.5,6.5v21c0,3.59,2.91,6.5,6.5,6.5c0.169,0,0.334-0.013,0.5-0.025v-33.949
			C495.835,159.013,495.669,159,495.5,159L495.5,159z"/>
	</g>
	<g id="rect-224">
		<path fill="#898989" d="M495,126.022v31.955c-2.799-0.254-5-2.613-5-5.478v-21C490,128.636,492.201,126.276,495,126.022
			 M495.5,125c-3.59,0-6.5,2.91-6.5,6.5v21c0,3.59,2.91,6.5,6.5,6.5c0.169,0,0.334-0.013,0.5-0.025v-33.95
			C495.835,125.013,495.669,125,495.5,125L495.5,125z"/>
	</g>
	<g id="rect-wagon-115">
		<path fill="#2DBCF8" d="M483,53h-20c-2.761,0-5,2.239-5,5v20c0,2.761,2.239,5,5,5h20c2.761,0,5-2.239,5-5V58
			C488,55.239,485.762,53,483,53z"/>
		<text transform="matrix(1 0 0 1 468.7698 74.1916)" fill="#FFFFFF" font-family="'Roboto-Regular'" font-size="16">1</text>
	</g>
	<g id="rect-wagon-116">
		<path fill="#2DBCF8" d="M483,19h-20c-2.761,0-5,2.239-5,5v20c0,2.761,2.239,5,5,5h20c2.761,0,5-2.239,5-5V24
			C488,21.239,485.762,19,483,19z"/>
		<text transform="matrix(1 0 0 1 468.7698 40.1916)" fill="#FFFFFF" font-family="'Roboto-Regular'" font-size="16">2</text>
	</g>
	<g id="rect-225" opacity="0.502">
		<path fill="#898989" d="M495.14,16v68H457V16H495.14 M496.14,15H456v70h40.14V15L496.14,15z"/>
	</g>
	<g id="rect-226">
		<path fill="#898989" d="M495,52.023v31.955c-2.799-0.254-5-2.613-5-5.477v-21C490,54.636,492.201,52.276,495,52.023 M495.5,51
			c-3.59,0-6.5,2.91-6.5,6.5v21c0,3.59,2.91,6.5,6.5,6.5c0.169,0,0.334-0.013,0.5-0.025v-33.95C495.835,51.013,495.669,51,495.5,51
			L495.5,51z"/>
	</g>
	<g id="rect-227">
		<path fill="#898989" d="M495,18.022v31.955c-2.799-0.254-5-2.613-5-5.477v-21C490,20.636,492.201,18.276,495,18.022 M495.5,17
			c-3.59,0-6.5,2.91-6.5,6.5v21c0,3.59,2.91,6.5,6.5,6.5c0.169,0,0.334-0.013,0.5-0.025v-33.95C495.835,17.013,495.669,17,495.5,17
			L495.5,17z"/>
	</g>
	<g id="rect-wagon-117">
		<path fill="#2DBCF8" d="M483,161h-20c-2.761,0-5,2.239-5,5v20c0,2.761,2.239,5,5,5h20c2.761,0,5-2.239,5-5v-20
			C488,163.239,485.762,161,483,161z"/>
		<text transform="matrix(1 0 0 1 468.7698 182.1911)" fill="#FFFFFF" font-family="'Roboto-Regular'" font-size="16">1</text>
	</g>
	<g id="rect-wagon-118">
		<path fill="#2DBCF8" d="M483,127h-20c-2.761,0-5,2.239-5,5v20c0,2.761,2.239,5,5,5h20c2.761,0,5-2.239,5-5v-20
			C488,129.239,485.762,127,483,127z"/>
		<text transform="matrix(1 0 0 1 468.7698 148.1911)" fill="#FFFFFF" font-family="'Roboto-Regular'" font-size="16">2</text>
	</g>
</g>
<g id="row-12">
	<g id="rect-228" opacity="0.502">
		<path fill="#898989" d="M552.14,126v68H514v-68H552.14 M553.14,125H513v70h40.14V125L553.14,125z"/>
	</g>
	<g id="rect-229">
		<path fill="#898989" d="M552,160.023v31.955c-2.799-0.254-5-2.613-5-5.477v-21C547,162.636,549.201,160.276,552,160.023
			 M552.5,159c-3.59,0-6.5,2.91-6.5,6.5v21c0,3.59,2.91,6.5,6.5,6.5c0.169,0,0.334-0.013,0.5-0.025v-33.949
			C552.835,159.013,552.669,159,552.5,159L552.5,159z"/>
	</g>
	<g id="rect-230">
		<path fill="#898989" d="M552,126.022v31.955c-2.799-0.254-5-2.613-5-5.478v-21C547,128.636,549.201,126.276,552,126.022
			 M552.5,125c-3.59,0-6.5,2.91-6.5,6.5v21c0,3.59,2.91,6.5,6.5,6.5c0.169,0,0.334-0.013,0.5-0.025v-33.95
			C552.835,125.013,552.669,125,552.5,125L552.5,125z"/>
	</g>
	<g id="rect-wagon-119">
		<path fill="#2DBCF8" d="M540,53h-20c-2.761,0-5,2.239-5,5v20c0,2.761,2.239,5,5,5h20c2.761,0,5-2.239,5-5V58
			C545,55.239,542.762,53,540,53z"/>
		<text transform="matrix(1 0 0 1 525.7698 74.1916)" fill="#FFFFFF" font-family="'Roboto-Regular'" font-size="16">1</text>
	</g>
	<g id="rect-wagon-120">
		<path fill="#2DBCF8" d="M540,19h-20c-2.761,0-5,2.239-5,5v20c0,2.761,2.239,5,5,5h20c2.761,0,5-2.239,5-5V24
			C545,21.239,542.762,19,540,19z"/>
		<text transform="matrix(1 0 0 1 525.7698 40.1916)" fill="#FFFFFF" font-family="'Roboto-Regular'" font-size="16">2</text>
	</g>
	<g id="rect-231" opacity="0.502">
		<path fill="#898989" d="M552.078,16v68H514V16H552.078 M553.078,15H513v70h40.078V15L553.078,15z"/>
	</g>
	<g id="rect-232">
		<path fill="#898989" d="M552,52.023v31.955c-2.799-0.254-5-2.613-5-5.477v-21C547,54.636,549.201,52.276,552,52.023 M552.5,51
			c-3.59,0-6.5,2.91-6.5,6.5v21c0,3.59,2.91,6.5,6.5,6.5c0.169,0,0.334-0.013,0.5-0.025v-33.95C552.835,51.013,552.669,51,552.5,51
			L552.5,51z"/>
	</g>
	<g id="rect-233">
		<path fill="#898989" d="M552,18.022v31.955c-2.799-0.254-5-2.613-5-5.477v-21C547,20.636,549.201,18.276,552,18.022 M552.5,17
			c-3.59,0-6.5,2.91-6.5,6.5v21c0,3.59,2.91,6.5,6.5,6.5c0.169,0,0.334-0.013,0.5-0.025v-33.95C552.835,17.013,552.669,17,552.5,17
			L552.5,17z"/>
	</g>
	<g id="rect-wagon-121">
		<path fill="#2DBCF8" d="M540,161h-20c-2.761,0-5,2.239-5,5v20c0,2.761,2.239,5,5,5h20c2.761,0,5-2.239,5-5v-20
			C545,163.239,542.762,161,540,161z"/>
		<text transform="matrix(1 0 0 1 525.7698 182.1911)" fill="#FFFFFF" font-family="'Roboto-Regular'" font-size="16">1</text>
	</g>
	<g id="rect-wagon-122">
		<path fill="#2DBCF8" d="M540,127h-20c-2.761,0-5,2.239-5,5v20c0,2.761,2.239,5,5,5h20c2.761,0,5-2.239,5-5v-20
			C545,129.239,542.762,127,540,127z"/>
		<text transform="matrix(1 0 0 1 525.7698 148.1911)" fill="#FFFFFF" font-family="'Roboto-Regular'" font-size="16">2</text>
	</g>
</g>
<g id="row-12_1_">
	<g id="rect-234" opacity="0.502">
		<path fill="#898989" d="M610.14,126v68H572v-68H610.14 M611.14,125H571v70h40.14V125L611.14,125z"/>
	</g>
	<g id="rect-235">
		<path fill="#898989" d="M610,160.023v31.955c-2.799-0.254-5-2.613-5-5.477v-21C605,162.636,607.201,160.276,610,160.023
			 M610.5,159c-3.59,0-6.5,2.91-6.5,6.5v21c0,3.59,2.91,6.5,6.5,6.5c0.169,0,0.334-0.013,0.5-0.025v-33.949
			C610.834,159.013,610.669,159,610.5,159L610.5,159z"/>
	</g>
	<g id="rect-236">
		<path fill="#898989" d="M610,126.022v31.955c-2.799-0.254-5-2.613-5-5.478v-21C605,128.636,607.201,126.276,610,126.022
			 M610.5,125c-3.59,0-6.5,2.91-6.5,6.5v21c0,3.59,2.91,6.5,6.5,6.5c0.169,0,0.334-0.013,0.5-0.025v-33.95
			C610.834,125.013,610.669,125,610.5,125L610.5,125z"/>
	</g>
	<g id="rect-wagon-123">
		<path fill="#2DBCF8" d="M598,53h-20c-2.761,0-5,2.239-5,5v20c0,2.761,2.239,5,5,5h20c2.761,0,5-2.239,5-5V58
			C603,55.239,600.762,53,598,53z"/>
		<text transform="matrix(1 0 0 1 583.7698 74.1916)" fill="#FFFFFF" font-family="'Roboto-Regular'" font-size="16">1</text>
	</g>
	<g id="rect-wagon-124">
		<path fill="#2DBCF8" d="M598,19h-20c-2.761,0-5,2.239-5,5v20c0,2.761,2.239,5,5,5h20c2.761,0,5-2.239,5-5V24
			C603,21.239,600.762,19,598,19z"/>
		<text transform="matrix(1 0 0 1 583.7698 40.1916)" fill="#FFFFFF" font-family="'Roboto-Regular'" font-size="16">2</text>
	</g>
	<g id="rect-237" opacity="0.502">
		<path fill="#898989" d="M609.999,16v68H572V16H609.999 M610.999,15H571v70h39.999V15L610.999,15z"/>
	</g>
	<g id="rect-238">
		<path fill="#898989" d="M610,52.023v31.955c-2.799-0.254-5-2.613-5-5.477v-21C605,54.636,607.201,52.276,610,52.023 M610.5,51
			c-3.59,0-6.5,2.91-6.5,6.5v21c0,3.59,2.91,6.5,6.5,6.5c0.169,0,0.334-0.013,0.5-0.025v-33.95C610.834,51.013,610.669,51,610.5,51
			L610.5,51z"/>
	</g>
	<g id="rect-wagon-125">
		<path fill="#898989" d="M610,18.022v31.955c-2.799-0.254-5-2.613-5-5.477v-21C605,20.636,607.201,18.276,610,18.022 M610.5,17
			c-3.59,0-6.5,2.91-6.5,6.5v21c0,3.59,2.91,6.5,6.5,6.5c0.169,0,0.334-0.013,0.5-0.025v-33.95C610.834,17.013,610.669,17,610.5,17
			L610.5,17z"/>
	</g>
	<g id="rect-wagon-126">
		<path fill="#2DBCF8" d="M598,161h-20c-2.761,0-5,2.239-5,5v20c0,2.761,2.239,5,5,5h20c2.761,0,5-2.239,5-5v-20
			C603,163.239,600.762,161,598,161z"/>
		<text transform="matrix(1 0 0 1 583.7698 182.1911)" fill="#FFFFFF" font-family="'Roboto-Regular'" font-size="16">1</text>
	</g>
	<g id="rect-wagon-127">
		<path fill="#2DBCF8" d="M598,127h-20c-2.761,0-5,2.239-5,5v20c0,2.761,2.239,5,5,5h20c2.761,0,5-2.239,5-5v-20
			C603,129.239,600.762,127,598,127z"/>
		<text transform="matrix(1 0 0 1 583.7698 148.1911)" fill="#FFFFFF" font-family="'Roboto-Regular'" font-size="16">2</text>
	</g>
</g>
<g id="row-13">
	<g id="rect-239" opacity="0.502">
		<path fill="#898989" d="M667.905,126v68H630v-68H667.905 M668.905,125H629v70h39.905V125L668.905,125z"/>
	</g>
	<g id="rect-240">
		<path fill="#898989" d="M668,160.023v31.955c-2.799-0.253-5-2.613-5-5.477v-21C663,162.636,665.201,160.276,668,160.023
			 M668.5,159c-3.59,0-6.5,2.91-6.5,6.5v21c0,3.59,2.91,6.5,6.5,6.5c0.169,0,0.334-0.013,0.5-0.025v-33.949
			C668.835,159.013,668.669,159,668.5,159L668.5,159z"/>
	</g>
	<g id="rect-241">
		<path fill="#898989" d="M668,126.022v31.955c-2.799-0.253-5-2.613-5-5.478v-21C663,128.636,665.201,126.276,668,126.022
			 M668.5,125c-3.59,0-6.5,2.91-6.5,6.5v21c0,3.59,2.91,6.5,6.5,6.5c0.169,0,0.334-0.013,0.5-0.025v-33.95
			C668.835,125.013,668.669,125,668.5,125L668.5,125z"/>
	</g>
	<g id="rect-wagon-128">
		<path fill="#2DBCF8" d="M656,53h-20c-2.761,0-5,2.239-5,5v20c0,2.761,2.239,5,5,5h20c2.761,0,5-2.239,5-5V58
			C661,55.239,658.762,53,656,53z"/>
		<text transform="matrix(1 0 0 1 641.7698 74.1916)" fill="#FFFFFF" font-family="'Roboto-Regular'" font-size="16">1</text>
	</g>
	<g id="rect-wagon-129">
		<path fill="#2DBCF8" d="M656,19h-20c-2.761,0-5,2.239-5,5v20c0,2.761,2.239,5,5,5h20c2.761,0,5-2.239,5-5V24
			C661,21.239,658.762,19,656,19z"/>
		<text transform="matrix(1 0 0 1 641.7698 40.1916)" fill="#FFFFFF" font-family="'Roboto-Regular'" font-size="16">2</text>
	</g>
	<g id="rect-242" opacity="0.502">
		<path fill="#898989" d="M668.256,16v68H630V16H668.256 M669.256,15H629v70h40.256V15L669.256,15z"/>
	</g>
	<g id="rect-243">
		<path fill="#898989" d="M668,52.023v31.955c-2.799-0.253-5-2.613-5-5.477v-21C663,54.636,665.201,52.276,668,52.023 M668.5,51
			c-3.59,0-6.5,2.91-6.5,6.5v21c0,3.59,2.91,6.5,6.5,6.5c0.169,0,0.334-0.013,0.5-0.025v-33.95C668.835,51.013,668.669,51,668.5,51
			L668.5,51z"/>
	</g>
	<g id="rect-244">
		<path fill="#898989" d="M668,18.022v31.955c-2.799-0.253-5-2.613-5-5.477v-21C663,20.636,665.201,18.276,668,18.022 M668.5,17
			c-3.59,0-6.5,2.91-6.5,6.5v21c0,3.59,2.91,6.5,6.5,6.5c0.169,0,0.334-0.013,0.5-0.025v-33.95C668.835,17.013,668.669,17,668.5,17
			L668.5,17z"/>
	</g>
	<g id="rect-wagon-130">
		<path fill="#2DBCF8" d="M656,161h-20c-2.761,0-5,2.239-5,5v20c0,2.761,2.239,5,5,5h20c2.761,0,5-2.239,5-5v-20
			C661,163.239,658.762,161,656,161z"/>
		<text transform="matrix(1 0 0 1 641.7698 182.1911)" fill="#FFFFFF" font-family="'Roboto-Regular'" font-size="16">1</text>
	</g>
	<g id="rect-wagon-131">
		<path fill="#2DBCF8" d="M656,127h-20c-2.761,0-5,2.239-5,5v20c0,2.761,2.239,5,5,5h20c2.761,0,5-2.239,5-5v-20
			C661,129.239,658.762,127,656,127z"/>
		<text transform="matrix(1 0 0 1 641.7698 148.1911)" fill="#FFFFFF" font-family="'Roboto-Regular'" font-size="16">2</text>
	</g>
</g>
<g id="rect-245" opacity="0.502">
	<path fill="#898989" d="M708,16v68h-38.205V16H708 M709,15h-40.205v70H709V15L709,15z"/>
</g>
<g id="rect-246">
	<path fill="#898989" d="M670,18.022c2.799,0.254,5,2.613,5,5.477v21c0,2.864-2.201,5.224-5,5.477V18.022 M669.5,17
		c-0.169,0-0.334,0.013-0.5,0.025v33.95c0.166,0.013,0.331,0.025,0.5,0.025c3.59,0,6.5-2.91,6.5-6.5v-21
		C676,19.91,673.09,17,669.5,17L669.5,17z"/>
</g>
<g id="rect-247">
	<path fill="#898989" d="M670,52.023c2.799,0.254,5,2.613,5,5.478v21c0,2.864-2.201,5.224-5,5.477V52.023 M669.5,51
		c-0.169,0-0.334,0.013-0.5,0.025v33.95c0.166,0.013,0.331,0.025,0.5,0.025c3.59,0,6.5-2.91,6.5-6.5v-21
		C676,53.91,673.09,51,669.5,51L669.5,51z"/>
</g>
<g id="rect-wagon-132">
	<path fill="#2DBCF8" d="M702,53h-20c-2.761,0-5,2.239-5,5v20c0,2.761,2.239,5,5,5h20c2.761,0,5-2.239,5-5V58
		C707,55.239,704.762,53,702,53z"/>
	<text transform="matrix(1 0 0 1 687.7698 74.1916)" fill="#FFFFFF" font-family="'Roboto-Regular'" font-size="16">1</text>
</g>
<g id="rect-wagon-133">
	<path fill="#2DBCF8" d="M702,19h-20c-2.761,0-5,2.239-5,5v20c0,2.761,2.239,5,5,5h20c2.761,0,5-2.239,5-5V24
		C707,21.239,704.762,19,702,19z"/>
	<text transform="matrix(1 0 0 1 687.7698 40.1916)" fill="#FFFFFF" font-family="'Roboto-Regular'" font-size="16">2</text>
</g>
<g id="rect-248" opacity="0.502">
	<path fill="#898989" d="M767,16v68h-38V16H767 M768,15h-40v70h40V15L768,15z"/>
</g>
<g id="rect-249">
	<path fill="#898989" d="M729,18.022c2.799,0.253,5,2.613,5,5.477v21c0,2.864-2.201,5.224-5,5.477V18.022 M728.5,17
		c-0.169,0-0.334,0.013-0.5,0.025v33.95c0.166,0.013,0.331,0.025,0.5,0.025c3.59,0,6.5-2.91,6.5-6.5v-21
		C735,19.91,732.09,17,728.5,17L728.5,17z"/>
</g>
<g id="rect-250">
	<path fill="#898989" d="M729,52.023c2.799,0.253,5,2.613,5,5.478v21c0,2.864-2.201,5.224-5,5.477V52.023 M728.5,51
		c-0.169,0-0.334,0.013-0.5,0.025v33.95c0.166,0.013,0.331,0.025,0.5,0.025c3.59,0,6.5-2.91,6.5-6.5v-21
		C735,53.91,732.09,51,728.5,51L728.5,51z"/>
</g>
<g id="rect-wagon-134">
	<path fill="#2DBCF8" d="M761,53h-20c-2.761,0-5,2.239-5,5v20c0,2.761,2.239,5,5,5h20c2.761,0,5-2.239,5-5V58
		C766,55.239,763.762,53,761,53z"/>
	<text transform="matrix(1 0 0 1 746.7693 74.1916)" fill="#FFFFFF" font-family="'Roboto-Regular'" font-size="16">1</text>
</g>
<g id="rect-wagon-135">
	<path fill="#2DBCF8" d="M761,19h-20c-2.761,0-5,2.239-5,5v20c0,2.761,2.239,5,5,5h20c2.761,0,5-2.239,5-5V24
		C766,21.239,763.762,19,761,19z"/>
	<text transform="matrix(1 0 0 1 746.7693 40.1916)" fill="#FFFFFF" font-family="'Roboto-Regular'" font-size="16">2</text>
</g>
<g id="rect-251" opacity="0.502">
	<path fill="#898989" d="M826,16v68h-37.984V16H826 M827,15h-39.984v70H827V15L827,15z"/>
</g>
<g id="rect-252">
	<path fill="#898989" d="M788,18.022c2.799,0.253,5,2.613,5,5.477v21c0,2.864-2.201,5.224-5,5.477V18.022 M787.5,17
		c-0.169,0-0.334,0.013-0.5,0.025v33.95c0.166,0.013,0.331,0.025,0.5,0.025c3.59,0,6.5-2.91,6.5-6.5v-21
		C794,19.91,791.09,17,787.5,17L787.5,17z"/>
</g>
<g id="rect-253">
	<path fill="#898989" d="M788,52.023c2.799,0.253,5,2.613,5,5.478v21c0,2.864-2.201,5.224-5,5.477V52.023 M787.5,51
		c-0.169,0-0.334,0.013-0.5,0.025v33.95c0.166,0.013,0.331,0.025,0.5,0.025c3.59,0,6.5-2.91,6.5-6.5v-21
		C794,53.91,791.09,51,787.5,51L787.5,51z"/>
</g>
<g id="rect-wagon-136">
	<path fill="#2DBCF8" d="M820,53h-20c-2.761,0-5,2.239-5,5v20c0,2.761,2.239,5,5,5h20c2.761,0,5-2.239,5-5V58
		C825,55.239,822.762,53,820,53z"/>
	<text transform="matrix(1 0 0 1 805.7693 74.1916)" fill="#FFFFFF" font-family="'Roboto-Regular'" font-size="16">1</text>
</g>
<g id="rect-wagon-137">
	<path fill="#2DBCF8" d="M820,19h-20c-2.761,0-5,2.239-5,5v20c0,2.761,2.239,5,5,5h20c2.761,0,5-2.239,5-5V24
		C825,21.239,822.762,19,820,19z"/>
	<text transform="matrix(1 0 0 1 805.7693 40.1916)" fill="#FFFFFF" font-family="'Roboto-Regular'" font-size="16">2</text>
</g>
<g id="rect-254" opacity="0.502">
	<path fill="#898989" d="M885,16v68h-37.985V16H885 M886,15h-39.985v70H886V15L886,15z"/>
</g>
<g id="rect-255">
	<path fill="#898989" d="M847,18.022c2.799,0.254,5,2.613,5,5.477v21c0,2.864-2.201,5.224-5,5.477V18.022 M846.5,17
		c-0.169,0-0.334,0.013-0.5,0.025v33.95c0.166,0.013,0.331,0.025,0.5,0.025c3.59,0,6.5-2.91,6.5-6.5v-21
		C853,19.91,850.09,17,846.5,17L846.5,17z"/>
</g>
<g id="rect-256">
	<path fill="#898989" d="M847,52.023c2.799,0.254,5,2.613,5,5.478v21c0,2.864-2.201,5.224-5,5.477V52.023 M846.5,51
		c-0.169,0-0.334,0.013-0.5,0.025v33.95c0.166,0.013,0.331,0.025,0.5,0.025c3.59,0,6.5-2.91,6.5-6.5v-21
		C853,53.91,850.09,51,846.5,51L846.5,51z"/>
</g>
<g id="rect-257">
	<path fill="#898989" d="M931,16v51h-24V16H931 M932,15h-26v53h26V15L932,15z"/>
</g>
<g id="rect-wagon-138">
	<path fill="#2DBCF8" d="M879,53h-20c-2.761,0-5,2.239-5,5v20c0,2.761,2.239,5,5,5h20c2.761,0,5-2.239,5-5V58
		C884,55.239,881.762,53,879,53z"/>
	<text transform="matrix(1 0 0 1 864.7693 74.1916)" fill="#FFFFFF" font-family="'Roboto-Regular'" font-size="16">1</text>
</g>
<g id="rect-wagon-139">
	<path fill="#2DBCF8" d="M879,19h-20c-2.761,0-5,2.239-5,5v20c0,2.761,2.239,5,5,5h20c2.761,0,5-2.239,5-5V24
		C884,21.239,881.762,19,879,19z"/>
	<text transform="matrix(1 0 0 1 864.7693 40.1916)" fill="#FFFFFF" font-family="'Roboto-Regular'" font-size="16">2</text>
</g>
<g id="rect-wagon-140">
	<path fill="#2DBCF8" d="M977,53h-20c-2.761,0-5,2.239-5,5v20c0,2.761,2.239,5,5,5h20c2.761,0,5-2.239,5-5V58
		C982,55.239,979.762,53,977,53z"/>
	<text transform="matrix(1 0 0 1 962.7693 74.1916)" fill="#FFFFFF" font-family="'Roboto-Regular'" font-size="16">1</text>
</g>
<g id="rect-wagon-141">
	<path fill="#2DBCF8" d="M977,19h-20c-2.761,0-5,2.239-5,5v20c0,2.761,2.239,5,5,5h20c2.761,0,5-2.239,5-5V24
		C982,21.239,979.762,19,977,19z"/>
	<text transform="matrix(1 0 0 1 962.7693 40.1916)" fill="#FFFFFF" font-family="'Roboto-Regular'" font-size="16">2</text>
</g>
<g id="rect-258">
	<path fill="#898989" d="M989.078,16v68H951V16H989.078 M990.078,15H950v70h40.078V15L990.078,15z"/>
</g>
<g id="rect-259">
	<path fill="#898989" d="M989,52.023v31.955c-2.799-0.253-5-2.613-5-5.477v-21C984,54.636,986.201,52.276,989,52.023 M989.5,51
		c-3.59,0-6.5,2.91-6.5,6.5v21c0,3.59,2.91,6.5,6.5,6.5c0.169,0,0.334-0.013,0.5-0.025v-33.95C989.835,51.013,989.669,51,989.5,51
		L989.5,51z"/>
</g>
<g id="rect-260">
	<path fill="#898989" d="M989,18.022v31.955c-2.799-0.253-5-2.613-5-5.477v-21C984,20.636,986.201,18.276,989,18.022 M989.5,17
		c-3.59,0-6.5,2.91-6.5,6.5v21c0,3.59,2.91,6.5,6.5,6.5c0.169,0,0.334-0.013,0.5-0.025v-33.95C989.835,17.013,989.669,17,989.5,17
		L989.5,17z"/>
</g>
<g id="rect-wagon-142">
	<path fill="#2DBCF8" d="M1034,53h-20c-2.761,0-5,2.239-5,5v20c0,2.761,2.239,5,5,5h20c2.761,0,5-2.239,5-5V58
		C1039,55.239,1036.762,53,1034,53z"/>
	<text transform="matrix(1 0 0 1 1019.7693 74.1916)" fill="#FFFFFF" font-family="'Roboto-Regular'" font-size="16">1</text>
</g>
<g id="rect-wagon-143">
	<path fill="#2DBCF8" d="M1034,19h-20c-2.761,0-5,2.239-5,5v20c0,2.761,2.239,5,5,5h20c2.761,0,5-2.239,5-5V24
		C1039,21.239,1036.762,19,1034,19z"/>
	<text transform="matrix(1 0 0 1 1019.7693 40.1916)" fill="#FFFFFF" font-family="'Roboto-Regular'" font-size="16">2</text>
</g>
<g id="rect-261" opacity="0.502">
	<path fill="#898989" d="M1046.14,16v68H1008V16H1046.14 M1047.14,15H1007v70h40.14V15L1047.14,15z"/>
</g>
<g id="rect-262">
	<path fill="#898989" d="M1046,52.023v31.955c-2.799-0.253-5-2.613-5-5.477v-21C1041,54.636,1043.201,52.276,1046,52.023 M1046.5,51
		c-3.59,0-6.5,2.91-6.5,6.5v21c0,3.59,2.91,6.5,6.5,6.5c0.169,0,0.334-0.013,0.5-0.025v-33.95
		C1046.835,51.013,1046.669,51,1046.5,51L1046.5,51z"/>
</g>
<g id="rect-263">
	<path fill="#898989" d="M1046,18.022v31.955c-2.799-0.253-5-2.613-5-5.477v-21C1041,20.636,1043.201,18.276,1046,18.022 M1046.5,17
		c-3.59,0-6.5,2.91-6.5,6.5v21c0,3.59,2.91,6.5,6.5,6.5c0.169,0,0.334-0.013,0.5-0.025v-33.95
		C1046.835,17.013,1046.669,17,1046.5,17L1046.5,17z"/>
</g>
<g id="rect-wagon-144">
	<path fill="#2DBCF8" d="M1092,53h-20c-2.761,0-5,2.239-5,5v20c0,2.761,2.239,5,5,5h20c2.761,0,5-2.239,5-5V58
		C1097,55.239,1094.762,53,1092,53z"/>
	<text transform="matrix(1 0 0 1 1077.7693 74.1916)" fill="#FFFFFF" font-family="'Roboto-Regular'" font-size="16">1</text>
</g>
<g id="rect-wagon-145">
	<path fill="#DDDDDD" d="M1092,21c1.654,0,3,1.346,3,3v20c0,1.654-1.346,3-3,3h-20c-1.654,0-3-1.346-3-3V24c0-1.654,1.346-3,3-3
		H1092 M1092,19h-20c-2.761,0-5,2.239-5,5v20c0,2.761,2.239,5,5,5h20c2.761,0,5-2.239,5-5V24C1097,21.239,1094.762,19,1092,19
		L1092,19z"/>
	<text transform="matrix(1 0 0 1 1077.7693 40.1916)" fill="#D2D2D2" font-family="'Roboto-Regular'" font-size="16">2</text>
</g>
<g id="rect-264" opacity="0.502">
	<path fill="#898989" d="M1104.015,16v68H1066V16H1104.015 M1105.015,15H1065v70h40.015V15L1105.015,15z"/>
</g>
<g id="rect-265">
	<path fill="#898989" d="M1104,52.023v31.955c-2.799-0.253-5-2.613-5-5.477v-21C1099,54.636,1101.201,52.276,1104,52.023 M1104.5,51
		c-3.59,0-6.5,2.91-6.5,6.5v21c0,3.59,2.91,6.5,6.5,6.5c0.169,0,0.334-0.013,0.5-0.025v-33.95
		C1104.835,51.013,1104.669,51,1104.5,51L1104.5,51z"/>
</g>
<g id="rect-266">
	<path fill="#898989" d="M1104,18.022v31.955c-2.799-0.253-5-2.613-5-5.477v-21C1099,20.636,1101.201,18.276,1104,18.022 M1104.5,17
		c-3.59,0-6.5,2.91-6.5,6.5v21c0,3.59,2.91,6.5,6.5,6.5c0.169,0,0.334-0.013,0.5-0.025v-33.95
		C1104.835,17.013,1104.669,17,1104.5,17L1104.5,17z"/>
</g>
<g id="rect-wagon-146">
	<path fill="#2DBCF8" d="M1150,53h-20c-2.761,0-5,2.239-5,5v20c0,2.761,2.239,5,5,5h20c2.761,0,5-2.239,5-5V58
		C1155,55.239,1152.762,53,1150,53z"/>
	<text transform="matrix(1 0 0 1 1135.7693 74.1916)" fill="#FFFFFF" font-family="'Roboto-Regular'" font-size="16">1</text>
</g>
<g id="rect-wagon-147">
	<path fill="#DDDDDD" d="M1150,21c1.654,0,3,1.346,3,3v20c0,1.654-1.346,3-3,3h-20c-1.654,0-3-1.346-3-3V24c0-1.654,1.346-3,3-3
		H1150 M1150,19h-20c-2.761,0-5,2.239-5,5v20c0,2.761,2.239,5,5,5h20c2.761,0,5-2.239,5-5V24C1155,21.239,1152.762,19,1150,19
		L1150,19z"/>
	<text transform="matrix(1 0 0 1 1135.7693 40.1916)" fill="#D2D2D2" font-family="'Roboto-Regular'" font-size="16">2</text>
</g>
<g id="rect-267" opacity="0.502">
	<path fill="#898989" d="M1162.015,16v68H1124V16H1162.015 M1163.015,15H1123v70h40.015V15L1163.015,15z"/>
</g>
<g id="rect-268">
	<path fill="#898989" d="M1162,52.023v31.955c-2.799-0.253-5-2.613-5-5.477v-21C1157,54.636,1159.201,52.276,1162,52.023 M1162.5,51
		c-3.59,0-6.5,2.91-6.5,6.5v21c0,3.59,2.91,6.5,6.5,6.5c0.169,0,0.334-0.013,0.5-0.025v-33.95
		C1162.835,51.013,1162.669,51,1162.5,51L1162.5,51z"/>
</g>
<g id="rect-269">
	<path fill="#898989" d="M1162,18.022v31.955c-2.799-0.253-5-2.613-5-5.477v-21C1157,20.636,1159.201,18.276,1162,18.022 M1162.5,17
		c-3.59,0-6.5,2.91-6.5,6.5v21c0,3.59,2.91,6.5,6.5,6.5c0.169,0,0.334-0.013,0.5-0.025v-33.95
		C1162.835,17.013,1162.669,17,1162.5,17L1162.5,17z"/>
</g>
<g id="rect-wagon-148">
	<path fill="#2DBCF8" d="M1092,53h-20c-2.761,0-5,2.239-5,5v20c0,2.761,2.239,5,5,5h20c2.761,0,5-2.239,5-5V58
		C1097,55.239,1094.762,53,1092,53z"/>
	<text transform="matrix(1 0 0 1 1077.7693 74.1916)" fill="#FFFFFF" font-family="'Roboto-Regular'" font-size="16">1</text>
</g>
<g id="rect-wagon-149">
	<path fill="#2DBCF8" d="M1092,19h-20c-2.761,0-5,2.239-5,5v20c0,2.761,2.239,5,5,5h20c2.761,0,5-2.239,5-5V24
		C1097,21.239,1094.762,19,1092,19z"/>
	<text transform="matrix(1 0 0 1 1077.7693 40.1916)" fill="#FFFFFF" font-family="'Roboto-Regular'" font-size="16">2</text>
</g>
<g id="rect-270">
	<path fill="#898989" d="M1104,52.023v31.955c-2.799-0.253-5-2.613-5-5.477v-21C1099,54.636,1101.201,52.276,1104,52.023 M1104.5,51
		c-3.59,0-6.5,2.91-6.5,6.5v21c0,3.59,2.91,6.5,6.5,6.5c0.169,0,0.334-0.013,0.5-0.025v-33.95
		C1104.835,51.013,1104.669,51,1104.5,51L1104.5,51z"/>
</g>
<g id="rect-271">
	<path fill="#898989" d="M1104,18.022v31.955c-2.799-0.253-5-2.613-5-5.477v-21C1099,20.636,1101.201,18.276,1104,18.022 M1104.5,17
		c-3.59,0-6.5,2.91-6.5,6.5v21c0,3.59,2.91,6.5,6.5,6.5c0.169,0,0.334-0.013,0.5-0.025v-33.95
		C1104.835,17.013,1104.669,17,1104.5,17L1104.5,17z"/>
</g>
<g id="rect-wagon-150">
	<path fill="#2DBCF8" d="M1150,53h-20c-2.761,0-5,2.239-5,5v20c0,2.761,2.239,5,5,5h20c2.761,0,5-2.239,5-5V58
		C1155,55.239,1152.762,53,1150,53z"/>
	<text transform="matrix(1 0 0 1 1135.7693 74.1916)" fill="#FFFFFF" font-family="'Roboto-Regular'" font-size="16">1</text>
</g>
<g id="rect-wagon-151">
	<path fill="#2DBCF8" d="M1150,19h-20c-2.761,0-5,2.239-5,5v20c0,2.761,2.239,5,5,5h20c2.761,0,5-2.239,5-5V24
		C1155,21.239,1152.762,19,1150,19z"/>
	<text transform="matrix(1 0 0 1 1135.7693 40.1916)" fill="#FFFFFF" font-family="'Roboto-Regular'" font-size="16">2</text>
</g>
<g id="rect-272">
	<path fill="#898989" d="M1162,52.023v31.955c-2.799-0.253-5-2.613-5-5.477v-21C1157,54.636,1159.201,52.276,1162,52.023 M1162.5,51
		c-3.59,0-6.5,2.91-6.5,6.5v21c0,3.59,2.91,6.5,6.5,6.5c0.169,0,0.334-0.013,0.5-0.025v-33.95
		C1162.835,51.013,1162.669,51,1162.5,51L1162.5,51z"/>
</g>
<g id="rect-273">
	<path fill="#898989" d="M1162,18.022v31.955c-2.799-0.253-5-2.613-5-5.477v-21C1157,20.636,1159.201,18.276,1162,18.022 M1162.5,17
		c-3.59,0-6.5,2.91-6.5,6.5v21c0,3.59,2.91,6.5,6.5,6.5c0.169,0,0.334-0.013,0.5-0.025v-33.95
		C1162.835,17.013,1162.669,17,1162.5,17L1162.5,17z"/>
</g>
<g id="rect-wagon-152">
	<path fill="#2DBCF8" d="M1206,53h-20c-2.761,0-5,2.239-5,5v20c0,2.761,2.239,5,5,5h20c2.761,0,5-2.239,5-5V58
		C1211,55.239,1208.762,53,1206,53z"/>
	<text transform="matrix(1 0 0 1 1191.7693 74.1916)" fill="#FFFFFF" font-family="'Roboto-Regular'" font-size="16">1</text>
</g>
<g id="rect-wagon-153">
	<path fill="#DDDDDD" d="M1206,21c1.654,0,3,1.346,3,3v20c0,1.654-1.346,3-3,3h-20c-1.654,0-3-1.346-3-3V24c0-1.654,1.346-3,3-3
		H1206 M1206,19h-20c-2.761,0-5,2.239-5,5v20c0,2.761,2.239,5,5,5h20c2.761,0,5-2.239,5-5V24C1211,21.239,1208.762,19,1206,19
		L1206,19z"/>
	<text transform="matrix(1 0 0 1 1191.7693 40.1916)" fill="#D2D2D2" font-family="'Roboto-Regular'" font-size="16">2</text>
</g>
<g id="rect-274" opacity="0.502">
	<path fill="#898989" d="M1217.997,16v68h-37.995V16H1217.997 M1219,15h-40v70h40V15L1219,15z"/>
</g>
<g id="rect-275">
	<path fill="#898989" d="M1218,52.023v31.955c-2.799-0.253-5-2.613-5-5.477v-21C1213,54.636,1215.201,52.276,1218,52.023 M1218.5,51
		c-3.59,0-6.5,2.91-6.5,6.5v21c0,3.59,2.91,6.5,6.5,6.5c0.169,0,0.334-0.013,0.5-0.025v-33.95
		C1218.835,51.013,1218.669,51,1218.5,51L1218.5,51z"/>
</g>
<g id="rect-276">
	<path fill="#898989" d="M1218,18.022v31.955c-2.799-0.253-5-2.613-5-5.477v-21C1213,20.636,1215.201,18.276,1218,18.022 M1218.5,17
		c-3.59,0-6.5,2.91-6.5,6.5v21c0,3.59,2.91,6.5,6.5,6.5c0.169,0,0.334-0.013,0.5-0.025v-33.95
		C1218.835,17.013,1218.669,17,1218.5,17L1218.5,17z"/>
</g>
<g id="rect-wagon-154">
	<path fill="#2DBCF8" d="M1206,53h-20c-2.761,0-5,2.239-5,5v20c0,2.761,2.239,5,5,5h20c2.761,0,5-2.239,5-5V58
		C1211,55.239,1208.762,53,1206,53z"/>
	<text transform="matrix(1 0 0 1 1191.7693 74.1916)" fill="#FFFFFF" font-family="'Roboto-Regular'" font-size="16">1</text>
</g>
<g id="rect-wagon-155">
	<path fill="#2DBCF8" d="M1206,19h-20c-2.761,0-5,2.239-5,5v20c0,2.761,2.239,5,5,5h20c2.761,0,5-2.239,5-5V24
		C1211,21.239,1208.762,19,1206,19z"/>
	<text transform="matrix(1 0 0 1 1191.7693 40.1916)" fill="#FFFFFF" font-family="'Roboto-Regular'" font-size="16">2</text>
</g>
<g id="rect-278">
	<path fill="#898989" d="M1218,52.023v31.955c-2.799-0.253-5-2.613-5-5.477v-21C1213,54.636,1215.201,52.276,1218,52.023 M1218.5,51
		c-3.59,0-6.5,2.91-6.5,6.5v21c0,3.59,2.91,6.5,6.5,6.5c0.169,0,0.334-0.013,0.5-0.025v-33.95
		C1218.835,51.013,1218.669,51,1218.5,51L1218.5,51z"/>
</g>
<g id="rect-279">
	<path fill="#898989" d="M1218,18.022v31.955c-2.799-0.253-5-2.613-5-5.477v-21C1213,20.636,1215.201,18.276,1218,18.022 M1218.5,17
		c-3.59,0-6.5,2.91-6.5,6.5v21c0,3.59,2.91,6.5,6.5,6.5c0.169,0,0.334-0.013,0.5-0.025v-33.95
		C1218.835,17.013,1218.669,17,1218.5,17L1218.5,17z"/>
</g>
<g id="rect-280">
	<path fill="#898989" d="M708,126v67h-38v-67H708 M709,125h-40v69h40V125L709,125z"/>
</g>
<g id="rect-281">
	<path fill="#898989" d="M670,126.022c2.799,0.254,5,2.613,5,5.478v21c0,2.864-2.201,5.224-5,5.477V126.022 M669.5,125
		c-0.169,0-0.334,0.013-0.5,0.025v33.95c0.166,0.012,0.331,0.025,0.5,0.025c3.59,0,6.5-2.91,6.5-6.5v-21
		C676,127.91,673.09,125,669.5,125L669.5,125z"/>
	<g id="rect-282">
		<path fill="#898989" d="M670,160.022c2.799,0.254,5,2.613,5,5.478v21c0,2.864-2.201,5.224-5,5.477V160.022 M669.5,159
			c-0.169,0-0.334,0.013-0.5,0.025v33.949c0.166,0.013,0.331,0.025,0.5,0.025c3.59,0,6.5-2.91,6.5-6.5v-21
			C676,161.91,673.09,159,669.5,159L669.5,159z"/>
	</g>
	<g id="rect-wagon-156">
		<path fill="#2DBCF8" d="M702,161h-20c-2.761,0-5,2.239-5,5v20c0,2.761,2.239,5,5,5h20c2.761,0,5-2.239,5-5v-20
			C707,163.239,704.762,161,702,161z"/>
		<text transform="matrix(1 0 0 1 687.7698 182.1911)" fill="#FFFFFF" font-family="'Roboto-Regular'" font-size="16">1</text>
	</g>
	<g id="rect-wagon-157">
		<path fill="#2DBCF8" d="M702,127h-20c-2.761,0-5,2.239-5,5v20c0,2.761,2.239,5,5,5h20c2.761,0,5-2.239,5-5v-20
			C707,129.239,704.762,127,702,127z"/>
		<text transform="matrix(1 0 0 1 687.7698 148.1911)" fill="#FFFFFF" font-family="'Roboto-Regular'" font-size="16">2</text>
	</g>
	<g id="rect-283">
		<path fill="#898989" d="M767,126v67h-38v-67H767 M768,125h-40v69h40V125L768,125z"/>
	</g>
	<g id="rect-284">
		<path fill="#898989" d="M729,126.022c2.799,0.253,5,2.613,5,5.478v21c0,2.864-2.201,5.224-5,5.477V126.022 M728.5,125
			c-0.169,0-0.334,0.013-0.5,0.025v33.95c0.166,0.012,0.331,0.025,0.5,0.025c3.59,0,6.5-2.91,6.5-6.5v-21
			C735,127.91,732.09,125,728.5,125L728.5,125z"/>
	</g>
	<g id="rect-285">
		<path fill="#898989" d="M729,160.022c2.799,0.253,5,2.613,5,5.478v21c0,2.864-2.201,5.224-5,5.477V160.022 M728.5,159
			c-0.169,0-0.334,0.013-0.5,0.025v33.949c0.166,0.013,0.331,0.025,0.5,0.025c3.59,0,6.5-2.91,6.5-6.5v-21
			C735,161.91,732.09,159,728.5,159L728.5,159z"/>
	</g>
	<g id="rect-wagon-158">
		<path fill="#2DBCF8" d="M761,161h-20c-2.761,0-5,2.239-5,5v20c0,2.761,2.239,5,5,5h20c2.761,0,5-2.239,5-5v-20
			C766,163.239,763.762,161,761,161z"/>
		<text transform="matrix(1 0 0 1 746.7693 182.1911)" fill="#FFFFFF" font-family="'Roboto-Regular'" font-size="16">1</text>
	</g>
	<g id="rect-wagon-159">
		<path fill="#2DBCF8" d="M761,127h-20c-2.761,0-5,2.239-5,5v20c0,2.761,2.239,5,5,5h20c2.761,0,5-2.239,5-5v-20
			C766,129.239,763.762,127,761,127z"/>
		<text transform="matrix(1 0 0 1 746.7693 148.1911)" fill="#FFFFFF" font-family="'Roboto-Regular'" font-size="16">2</text>
	</g>
	<g id="rect-286" opacity="0.502">
		<path fill="#898989" d="M826,126v67h-38.016v-67H826 M827,125h-40.016v69H827V125L827,125z"/>
	</g>
	<g id="rect-287">
		<path fill="#898989" d="M788,126.022c2.799,0.253,5,2.613,5,5.478v21c0,2.864-2.201,5.224-5,5.477V126.022 M787.5,125
			c-0.169,0-0.334,0.013-0.5,0.025v33.95c0.166,0.012,0.331,0.025,0.5,0.025c3.59,0,6.5-2.91,6.5-6.5v-21
			C794,127.91,791.09,125,787.5,125L787.5,125z"/>
	</g>
	<g id="rect-288">
		<path fill="#898989" d="M788,160.022c2.799,0.253,5,2.613,5,5.478v21c0,2.864-2.201,5.224-5,5.477V160.022 M787.5,159
			c-0.169,0-0.334,0.013-0.5,0.025v33.949c0.166,0.013,0.331,0.025,0.5,0.025c3.59,0,6.5-2.91,6.5-6.5v-21
			C794,161.91,791.09,159,787.5,159L787.5,159z"/>
	</g>
	<g id="rect-wagon-160">
		<path fill="#2DBCF8" d="M820,161h-20c-2.761,0-5,2.239-5,5v20c0,2.761,2.239,5,5,5h20c2.761,0,5-2.239,5-5v-20
			C825,163.239,822.762,161,820,161z"/>
		<text transform="matrix(1 0 0 1 805.7693 182.1911)" fill="#FFFFFF" font-family="'Roboto-Regular'" font-size="16">1</text>
	</g>
	<g id="rect-wagon-161">
		<path fill="#2DBCF8" d="M820,127h-20c-2.761,0-5,2.239-5,5v20c0,2.761,2.239,5,5,5h20c2.761,0,5-2.239,5-5v-20
			C825,129.239,822.762,127,820,127z"/>
		<text transform="matrix(1 0 0 1 805.7693 148.1911)" fill="#FFFFFF" font-family="'Roboto-Regular'" font-size="16">2</text>
	</g>
	<g id="rect-289" opacity="0.502">
		<path fill="#898989" d="M885,126v67h-38.017v-67H885 M886,125h-40.017v69H886V125L886,125z"/>
	</g>
	<g id="rect-310">
		<path fill="#898989" d="M847,126.022c2.799,0.254,5,2.613,5,5.478v21c0,2.864-2.201,5.224-5,5.477V126.022 M846.5,125
			c-0.169,0-0.334,0.013-0.5,0.025v33.95c0.166,0.012,0.331,0.025,0.5,0.025c3.59,0,6.5-2.91,6.5-6.5v-21
			C853,127.91,850.09,125,846.5,125L846.5,125z"/>
	</g>
	<g id="rect-290">
		<path fill="#898989" d="M847,160.022c2.799,0.254,5,2.613,5,5.478v21c0,2.864-2.201,5.224-5,5.477V160.022 M846.5,159
			c-0.169,0-0.334,0.013-0.5,0.025v33.949c0.166,0.013,0.331,0.025,0.5,0.025c3.59,0,6.5-2.91,6.5-6.5v-21
			C853,161.91,850.09,159,846.5,159L846.5,159z"/>
	</g>
	<g id="rect-291">
		<path fill="#898989" d="M931,124v51h-24v-51H931 M932,123h-26v53h26V123L932,123z"/>
	</g>
	<g id="rect-wagon-162">
		<path fill="#2DBCF8" d="M879,161h-20c-2.761,0-5,2.239-5,5v20c0,2.761,2.239,5,5,5h20c2.761,0,5-2.239,5-5v-20
			C884,163.239,881.762,161,879,161z"/>
		<text transform="matrix(1 0 0 1 864.7693 182.1911)" fill="#FFFFFF" font-family="'Roboto-Regular'" font-size="16">1</text>
	</g>
	<g id="rect-wagon-163">
		<path fill="#2DBCF8" d="M879,127h-20c-2.761,0-5,2.239-5,5v20c0,2.761,2.239,5,5,5h20c2.761,0,5-2.239,5-5v-20
			C884,129.239,881.762,127,879,127z"/>
		<text transform="matrix(1 0 0 1 864.7693 148.1911)" fill="#FFFFFF" font-family="'Roboto-Regular'" font-size="16">2</text>
	</g>
	<g id="rect-wagon-164">
		<path fill="#2DBCF8" d="M977,161h-20c-2.761,0-5,2.239-5,5v20c0,2.761,2.239,5,5,5h20c2.761,0,5-2.239,5-5v-20
			C982,163.239,979.762,161,977,161z"/>
		<text transform="matrix(1 0 0 1 962.7693 182.1911)" fill="#FFFFFF" font-family="'Roboto-Regular'" font-size="16">1</text>
	</g>
	<g id="rect-wagon-165">
		<path fill="#2DBCF8" d="M977,127h-20c-2.761,0-5,2.239-5,5v20c0,2.761,2.239,5,5,5h20c2.761,0,5-2.239,5-5v-20
			C982,129.239,979.762,127,977,127z"/>
		<text transform="matrix(1 0 0 1 962.7693 148.1911)" fill="#FFFFFF" font-family="'Roboto-Regular'" font-size="16">2</text>
	</g>
	<g id="rect-292" opacity="0.502">
		<path fill="#898989" d="M989.046,125.986v67.029H951v-67.029H989.046 M990.046,125H950v69h40.046V125L990.046,125z"/>
	</g>
	<g id="rect-293">
		<path fill="#898989" d="M989.063,160.022v31.955c-2.799-0.253-5-2.613-5-5.477v-21
			C984.063,162.636,986.263,160.276,989.063,160.022 M989.563,159c-3.59,0-6.5,2.91-6.5,6.5v21c0,3.59,2.91,6.5,6.5,6.5
			c0.169,0,0.334-0.013,0.5-0.025v-33.949C989.897,159.013,989.731,159,989.563,159L989.563,159z"/>
	</g>
	<g id="rect-294">
		<path fill="#898989" d="M989.063,126.022v31.955c-2.799-0.253-5-2.613-5-5.477v-21
			C984.063,128.636,986.263,126.276,989.063,126.022 M989.563,125c-3.59,0-6.5,2.91-6.5,6.5v21c0,3.59,2.91,6.5,6.5,6.5
			c0.169,0,0.334-0.013,0.5-0.025v-33.95C989.897,125.013,989.731,125,989.563,125L989.563,125z"/>
	</g>
	<g id="rect-wagon-166">
		<path fill="#2DBCF8" d="M1034,161h-20c-2.761,0-5,2.239-5,5v20c0,2.761,2.239,5,5,5h20c2.761,0,5-2.239,5-5v-20
			C1039,163.239,1036.762,161,1034,161z"/>
		<text transform="matrix(1 0 0 1 1019.7693 182.1911)" fill="#FFFFFF" font-family="'Roboto-Regular'" font-size="16">1</text>
	</g>
	<g id="rect-wagon-167">
		<path fill="#2DBCF8" d="M1034,127h-20c-2.761,0-5,2.239-5,5v20c0,2.761,2.239,5,5,5h20c2.761,0,5-2.239,5-5v-20
			C1039,129.239,1036.762,127,1034,127z"/>
		<text transform="matrix(1 0 0 1 1019.7693 148.1911)" fill="#FFFFFF" font-family="'Roboto-Regular'" font-size="16">2</text>
	</g>
	<g id="rect-295" opacity="0.502">
		<path fill="#898989" d="M1046.047,125.986v67.029H1008v-67.029H1046.047 M1047.047,125H1007v69h40.046L1047.047,125L1047.047,125z
			"/>
	</g>
	<g id="rect-296">
		<path fill="#898989" d="M1046,160.022v31.955c-2.799-0.253-5-2.613-5-5.477v-21C1041,162.636,1043.201,160.276,1046,160.022
			 M1046.5,159c-3.59,0-6.5,2.91-6.5,6.5v21c0,3.59,2.91,6.5,6.5,6.5c0.169,0,0.334-0.013,0.5-0.025v-33.949
			C1046.835,159.013,1046.669,159,1046.5,159L1046.5,159z"/>
	</g>
	<g id="rect-297">
		<path fill="#898989" d="M1046,126.022v31.955c-2.799-0.253-5-2.613-5-5.477v-21C1041,128.636,1043.201,126.276,1046,126.022
			 M1046.5,125c-3.59,0-6.5,2.91-6.5,6.5v21c0,3.59,2.91,6.5,6.5,6.5c0.169,0,0.334-0.013,0.5-0.025v-33.95
			C1046.835,125.013,1046.669,125,1046.5,125L1046.5,125z"/>
	</g>
	<g id="rect-wagon-168">
		<path fill="#2DBCF8" d="M1092,161h-20c-2.761,0-5,2.239-5,5v20c0,2.761,2.239,5,5,5h20c2.761,0,5-2.239,5-5v-20
			C1097,163.239,1094.762,161,1092,161z"/>
		<text transform="matrix(1 0 0 1 1077.7693 182.1911)" fill="#FFFFFF" font-family="'Roboto-Regular'" font-size="16">1</text>
	</g>
	<g id="rect-wagon-169">
		<path fill="#2DBCF8" d="M1092,127h-20c-2.761,0-5,2.239-5,5v20c0,2.761,2.239,5,5,5h20c2.761,0,5-2.239,5-5v-20
			C1097,129.239,1094.762,127,1092,127z"/>
		<text transform="matrix(1 0 0 1 1077.7693 148.1911)" fill="#FFFFFF" font-family="'Roboto-Regular'" font-size="16">2</text>
	</g>
	<g id="rect-298" opacity="0.502">
		<path fill="#898989" d="M1103.974,125.986v67.029h-37.949v-67.029H1103.974 M1105,125h-40v69h40V125L1105,125z"/>
	</g>
	<g id="rect-299">
		<path fill="#898989" d="M1104,160.022v31.955c-2.799-0.253-5-2.613-5-5.477v-21C1099,162.636,1101.201,160.276,1104,160.022
			 M1104.5,159c-3.59,0-6.5,2.91-6.5,6.5v21c0,3.59,2.91,6.5,6.5,6.5c0.169,0,0.334-0.013,0.5-0.025v-33.949
			C1104.835,159.013,1104.669,159,1104.5,159L1104.5,159z"/>
	</g>
	<g id="rect-300">
		<path fill="#898989" d="M1104,126.022v31.955c-2.799-0.253-5-2.613-5-5.477v-21C1099,128.636,1101.201,126.276,1104,126.022
			 M1104.5,125c-3.59,0-6.5,2.91-6.5,6.5v21c0,3.59,2.91,6.5,6.5,6.5c0.169,0,0.334-0.013,0.5-0.025v-33.95
			C1104.835,125.013,1104.669,125,1104.5,125L1104.5,125z"/>
	</g>
	<g id="rect-wagon-170">
		<path fill="#2DBCF8" d="M1150,161h-20c-2.761,0-5,2.239-5,5v20c0,2.761,2.239,5,5,5h20c2.761,0,5-2.239,5-5v-20
			C1155,163.239,1152.762,161,1150,161z"/>
		<text transform="matrix(1 0 0 1 1135.7693 182.1911)" fill="#FFFFFF" font-family="'Roboto-Regular'" font-size="16">1</text>
	</g>
	<g id="rect-wagon-171">
		<path fill="#2DBCF8" d="M1150,127h-20c-2.761,0-5,2.239-5,5v20c0,2.761,2.239,5,5,5h20c2.761,0,5-2.239,5-5v-20
			C1155,129.239,1152.762,127,1150,127z"/>
		<text transform="matrix(1 0 0 1 1135.7693 148.1911)" fill="#FFFFFF" font-family="'Roboto-Regular'" font-size="16">2</text>
	</g>
	<g id="rect-301" opacity="0.502">
		<path fill="#898989" d="M1162.027,125.986v67.029h-38v-67.029H1162.027 M1163.054,125H1123v69h40.054V125L1163.054,125z"/>
	</g>
	<g id="rect-302">
		<path fill="#898989" d="M1162,160.022v31.955c-2.799-0.253-5-2.613-5-5.477v-21C1157,162.636,1159.201,160.276,1162,160.022
			 M1162.5,159c-3.59,0-6.5,2.91-6.5,6.5v21c0,3.59,2.91,6.5,6.5,6.5c0.169,0,0.334-0.013,0.5-0.025v-33.949
			C1162.835,159.013,1162.669,159,1162.5,159L1162.5,159z"/>
	</g>
	<g id="rect-303">
		<path fill="#898989" d="M1162,126.022v31.955c-2.799-0.253-5-2.613-5-5.477v-21C1157,128.636,1159.201,126.276,1162,126.022
			 M1162.5,125c-3.59,0-6.5,2.91-6.5,6.5v21c0,3.59,2.91,6.5,6.5,6.5c0.169,0,0.334-0.013,0.5-0.025v-33.95
			C1162.835,125.013,1162.669,125,1162.5,125L1162.5,125z"/>
	</g>
</g>
<g id="right-side-4">
	<g id="rect-304">
		<path fill="#898989" d="M1366.031,10v5v2h2h20.003c4.395,0,7.97,3.589,7.97,8v160c0,4.411-3.575,8-7.97,8h-20.003h-2v2v5h-24.969
			v-5v-2h-2H1278V17h61.063h2v-2v-5H1366.031 M1368.031,8h-28.969v7H1276v180h63.063v7h28.969v-7c11.966,0,20.003,0,20.003,0
			c5.506,0,9.97-4.477,9.97-10V25c0-5.523-4.464-10-9.97-10c0,0-7.61,0-20.003,0L1368.031,8L1368.031,8z"/>
	</g>
	<g id="rect-305">
		<polygon fill="#898989" points="1327,83 1277,83 1277,85 1327,85 		"/>
	</g>
	<g id="rect-306">
		<path fill="#898989" d="M1366.031,199v1h-24.969v-1H1366.031 M1368.031,197h-28.969v5h28.969V197L1368.031,197z"/>
	</g>
	<g id="rect-307">
		<path fill="#898989" d="M1366.031,10v1h-24.969v-1H1366.031 M1368.031,8h-28.969v5h28.969V8L1368.031,8z"/>
	</g>
	<g id="rect-308">
		<rect x="1395" y="88" fill="#FFFFFF" width="6" height="34"/>
		<path fill="#898989" d="M1400,89v32h-4V89H1400 M1402,87h-8v36h8V87L1402,87z"/>
	</g>
	<g id="rect-309">
		<polygon fill="#FFFFFF" points="1327,193 1327.001,191.975 1327.001,193 		"/>
		<polygon fill="#898989" points="1328,16 1326.087,16 1326,194 1328,194 		"/>
	</g>
	<g id="rect-310_1_">
		<rect x="1324.001" y="88" fill="#FFFFFF" width="6" height="34"/>
		<path fill="#898989" d="M1329,89v32h-4V89H1329 M1331,87h-8v36h8V87L1331,87z"/>
	</g>
	<g id="rect-311">
		<rect x="1274" y="88" fill="#FFFFFF" width="6" height="34"/>
		<path fill="#898989" d="M1279,89v32h-4V89H1279 M1281,87h-8v36h8V87L1281,87z"/>
	</g>
	<g id="WC_1_4">
		<text transform="matrix(1 0 0 1 1283.7693 60.1916)" fill="#898989" font-family="'Roboto-Regular'" font-size="24">WC</text>
	</g>
	<g id="WC-4">
		<text transform="matrix(1 0 0 1 79.7693 56.1916)" fill="#898989" font-family="'Roboto-Regular'" font-size="24">WC</text>
	</g>
</g>
<g id="rect-wagon-152_1_">
	<path fill="#2DBCF8" d="M1264,53h-20c-2.761,0-5,2.239-5,5v20c0,2.761,2.239,5,5,5h20c2.761,0,5-2.239,5-5V58
		C1269,55.239,1266.762,53,1264,53z"/>
	<text transform="matrix(1 0 0 1 1249.7693 74.1916)" fill="#FFFFFF" font-family="'Roboto-Regular'" font-size="16">1</text>
</g>
<g id="rect-wagon-153_1_">
	<path fill="#DDDDDD" d="M1264,21c1.654,0,3,1.346,3,3v20c0,1.654-1.346,3-3,3h-20c-1.654,0-3-1.346-3-3V24c0-1.654,1.346-3,3-3
		H1264 M1264,19h-20c-2.761,0-5,2.239-5,5v20c0,2.761,2.239,5,5,5h20c2.761,0,5-2.239,5-5V24C1269,21.239,1266.762,19,1264,19
		L1264,19z"/>
	<text transform="matrix(1 0 0 1 1249.7693 40.1916)" fill="#D2D2D2" font-family="'Roboto-Regular'" font-size="16">2</text>
</g>
<g id="rect-274_1_" opacity="0.502">
	<path fill="#898989" d="M1275.997,16v68h-37.995V16H1275.997 M1277,15h-40v70h40V15L1277,15z"/>
</g>
<g id="rect-275_1_">
	<path fill="#898989" d="M1276,52.023v31.955c-2.799-0.253-5-2.613-5-5.477v-21C1271,54.636,1273.201,52.276,1276,52.023 M1276.5,51
		c-3.59,0-6.5,2.91-6.5,6.5v21c0,3.59,2.91,6.5,6.5,6.5c0.169,0,0.334-0.013,0.5-0.025v-33.95
		C1276.835,51.013,1276.669,51,1276.5,51L1276.5,51z"/>
</g>
<g id="rect-276_1_">
	<path fill="#898989" d="M1276,18.022v31.955c-2.799-0.253-5-2.613-5-5.477v-21C1271,20.636,1273.201,18.276,1276,18.022 M1276.5,17
		c-3.59,0-6.5,2.91-6.5,6.5v21c0,3.59,2.91,6.5,6.5,6.5c0.169,0,0.334-0.013,0.5-0.025v-33.95
		C1276.835,17.013,1276.669,17,1276.5,17L1276.5,17z"/>
</g>
<g id="rect-wagon-173">
	<path fill="#2DBCF8" d="M1264,53h-20c-2.761,0-5,2.239-5,5v20c0,2.761,2.239,5,5,5h20c2.761,0,5-2.239,5-5V58
		C1269,55.239,1266.762,53,1264,53z"/>
	<text transform="matrix(1 0 0 1 1249.7693 74.1916)" fill="#FFFFFF" font-family="'Roboto-Regular'" font-size="16">1</text>
</g>
<g id="rect-wagon-174">
	<path fill="#2DBCF8" d="M1264,19h-20c-2.761,0-5,2.239-5,5v20c0,2.761,2.239,5,5,5h20c2.761,0,5-2.239,5-5V24
		C1269,21.239,1266.762,19,1264,19z"/>
	<text transform="matrix(1 0 0 1 1249.7693 40.1916)" fill="#FFFFFF" font-family="'Roboto-Regular'" font-size="16">2</text>
</g>
<g id="rect-278_1_">
	<path fill="#898989" d="M1276,52.023v31.955c-2.799-0.253-5-2.613-5-5.477v-21C1271,54.636,1273.201,52.276,1276,52.023 M1276.5,51
		c-3.59,0-6.5,2.91-6.5,6.5v21c0,3.59,2.91,6.5,6.5,6.5c0.169,0,0.334-0.013,0.5-0.025v-33.95
		C1276.835,51.013,1276.669,51,1276.5,51L1276.5,51z"/>
</g>
<g id="rect-279_1_">
	<path fill="#898989" d="M1276,18.022v31.955c-2.799-0.253-5-2.613-5-5.477v-21C1271,20.636,1273.201,18.276,1276,18.022 M1276.5,17
		c-3.59,0-6.5,2.91-6.5,6.5v21c0,3.59,2.91,6.5,6.5,6.5c0.169,0,0.334-0.013,0.5-0.025v-33.95
		C1276.835,17.013,1276.669,17,1276.5,17L1276.5,17z"/>
</g>
<g id="rect-wagon-152_2_">
	<path fill="#2DBCF8" d="M1206,161h-20c-2.761,0-5,2.239-5,5v20c0,2.761,2.239,5,5,5h20c2.761,0,5-2.239,5-5v-20
		C1211,163.239,1208.762,161,1206,161z"/>
	<text transform="matrix(1 0 0 1 1191.7693 182.1916)" fill="#FFFFFF" font-family="'Roboto-Regular'" font-size="16">1</text>
</g>
<g id="rect-wagon-153_2_">
	<path fill="#DDDDDD" d="M1206,129c1.654,0,3,1.346,3,3v20c0,1.654-1.346,3-3,3h-20c-1.654,0-3-1.346-3-3v-20c0-1.654,1.346-3,3-3
		H1206 M1206,127h-20c-2.761,0-5,2.239-5,5v20c0,2.761,2.239,5,5,5h20c2.761,0,5-2.239,5-5v-20C1211,129.239,1208.762,127,1206,127
		L1206,127z"/>
	<text transform="matrix(1 0 0 1 1191.7693 148.1916)" fill="#D2D2D2" font-family="'Roboto-Regular'" font-size="16">2</text>
</g>
<g id="rect-274_2_" opacity="0.502">
	<path fill="#898989" d="M1217.997,125.986v67.029h-37.995v-67.029H1217.997 M1219,125h-40v69h40V125L1219,125z"/>
</g>
<g id="rect-275_2_">
	<path fill="#898989" d="M1218,160.023v31.955c-2.799-0.253-5-2.613-5-5.477v-21C1213,162.636,1215.201,160.276,1218,160.023
		 M1218.5,159c-3.59,0-6.5,2.91-6.5,6.5v21c0,3.59,2.91,6.5,6.5,6.5c0.169,0,0.334-0.013,0.5-0.025v-33.95
		C1218.835,159.013,1218.669,159,1218.5,159L1218.5,159z"/>
</g>
<g id="rect-276_2_">
	<path fill="#898989" d="M1218,126.022v31.955c-2.799-0.253-5-2.613-5-5.477v-21C1213,128.636,1215.201,126.276,1218,126.022
		 M1218.5,125c-3.59,0-6.5,2.91-6.5,6.5v21c0,3.59,2.91,6.5,6.5,6.5c0.169,0,0.334-0.013,0.5-0.025v-33.95
		C1218.835,125.013,1218.669,125,1218.5,125L1218.5,125z"/>
</g>
<g id="rect-wagon-154_1_">
	<path fill="#2DBCF8" d="M1206,161h-20c-2.761,0-5,2.239-5,5v20c0,2.761,2.239,5,5,5h20c2.761,0,5-2.239,5-5v-20
		C1211,163.239,1208.762,161,1206,161z"/>
	<text transform="matrix(1 0 0 1 1191.7693 182.1916)" fill="#FFFFFF" font-family="'Roboto-Regular'" font-size="16">1</text>
</g>
<g id="rect-wagon-155_1_">
	<path fill="#2DBCF8" d="M1206,127h-20c-2.761,0-5,2.239-5,5v20c0,2.761,2.239,5,5,5h20c2.761,0,5-2.239,5-5v-20
		C1211,129.239,1208.762,127,1206,127z"/>
	<text transform="matrix(1 0 0 1 1191.7693 148.1916)" fill="#FFFFFF" font-family="'Roboto-Regular'" font-size="16">2</text>
</g>
<g id="rect-278_2_">
	<path fill="#898989" d="M1218,160.023v31.955c-2.799-0.253-5-2.613-5-5.477v-21C1213,162.636,1215.201,160.276,1218,160.023
		 M1218.5,159c-3.59,0-6.5,2.91-6.5,6.5v21c0,3.59,2.91,6.5,6.5,6.5c0.169,0,0.334-0.013,0.5-0.025v-33.95
		C1218.835,159.013,1218.669,159,1218.5,159L1218.5,159z"/>
</g>
<g id="rect-279_2_">
	<path fill="#898989" d="M1218,126.022v31.955c-2.799-0.253-5-2.613-5-5.477v-21C1213,128.636,1215.201,126.276,1218,126.022
		 M1218.5,125c-3.59,0-6.5,2.91-6.5,6.5v21c0,3.59,2.91,6.5,6.5,6.5c0.169,0,0.334-0.013,0.5-0.025v-33.95
		C1218.835,125.013,1218.669,125,1218.5,125L1218.5,125z"/>
</g>
</svg>
